<mxfile host="app.diagrams.net" modified="2022-03-19T05:54:19.349Z" agent="5.0 (Windows NT 10.0; Win64; x64) AppleWebKit/537.36 (KHTML, like Gecko) Chrome/97.0.4692.71 Safari/537.36" etag="zc0Dp7EtsN_8FmBZM6_e" version="17.1.3" type="github">
  <diagram id="g-MOh1ogWDr8jSSuVSur" name="Page-1">
    <mxGraphModel dx="957" dy="1857" grid="1" gridSize="10" guides="1" tooltips="1" connect="1" arrows="1" fold="1" page="1" pageScale="1" pageWidth="827" pageHeight="1169" math="0" shadow="0">
      <root>
        <mxCell id="0" />
        <mxCell id="1" parent="0" />
        <mxCell id="VO_4vQ80IrR_DuiOpRqN-85" value="" style="rounded=0;whiteSpace=wrap;html=1;strokeWidth=3;fillColor=none;" vertex="1" parent="1">
          <mxGeometry x="40" y="90" width="760" height="1010" as="geometry" />
        </mxCell>
        <mxCell id="VO_4vQ80IrR_DuiOpRqN-98" value="" style="line;strokeWidth=10;direction=south;html=1;perimeter=backbonePerimeter;points=[];outlineConnect=0;fontColor=#FFFFFF;fillColor=none;strokeColor=#CCCCCC;" vertex="1" parent="1">
          <mxGeometry x="403.43" y="960" width="10" height="120" as="geometry" />
        </mxCell>
        <mxCell id="VO_4vQ80IrR_DuiOpRqN-91" value="" style="rounded=0;whiteSpace=wrap;html=1;fillColor=none;" vertex="1" parent="1">
          <mxGeometry x="352.14" y="540" width="157.86" height="560" as="geometry" />
        </mxCell>
        <mxCell id="VO_4vQ80IrR_DuiOpRqN-2" value="" style="rounded=0;whiteSpace=wrap;html=1;fillColor=none;" vertex="1" parent="1">
          <mxGeometry x="400" y="90" width="40" height="130" as="geometry" />
        </mxCell>
        <mxCell id="VO_4vQ80IrR_DuiOpRqN-3" value="特色花圃展区" style="rounded=0;whiteSpace=wrap;html=1;fillColor=none;" vertex="1" parent="1">
          <mxGeometry x="440" y="90" width="230" height="70" as="geometry" />
        </mxCell>
        <mxCell id="VO_4vQ80IrR_DuiOpRqN-22" value="" style="group" vertex="1" connectable="0" parent="1">
          <mxGeometry x="290" y="300" width="100" height="50" as="geometry" />
        </mxCell>
        <mxCell id="VO_4vQ80IrR_DuiOpRqN-9" value="" style="shape=loopLimit;whiteSpace=wrap;html=1;fillColor=none;" vertex="1" parent="VO_4vQ80IrR_DuiOpRqN-22">
          <mxGeometry width="100" height="50" as="geometry" />
        </mxCell>
        <mxCell id="VO_4vQ80IrR_DuiOpRqN-6" value="" style="fontColor=#0066CC;verticalAlign=top;verticalLabelPosition=bottom;labelPosition=center;align=center;html=1;outlineConnect=0;fillColor=#CCCCCC;strokeColor=#6881B3;gradientColor=none;gradientDirection=north;strokeWidth=2;shape=mxgraph.networks.hub;" vertex="1" parent="VO_4vQ80IrR_DuiOpRqN-22">
          <mxGeometry x="57.85714285714286" y="18.75" width="28.571428571428573" height="6.25" as="geometry" />
        </mxCell>
        <mxCell id="VO_4vQ80IrR_DuiOpRqN-7" value="" style="sketch=0;pointerEvents=1;shadow=0;dashed=0;html=1;strokeColor=none;fillColor=#505050;labelPosition=center;verticalLabelPosition=bottom;verticalAlign=top;outlineConnect=0;align=center;shape=mxgraph.office.devices.switch;" vertex="1" parent="VO_4vQ80IrR_DuiOpRqN-22">
          <mxGeometry x="55.35714285714286" y="37.5" width="33.57142857142857" height="6.25" as="geometry" />
        </mxCell>
        <mxCell id="VO_4vQ80IrR_DuiOpRqN-8" value="" style="fontColor=#0066CC;verticalAlign=top;verticalLabelPosition=bottom;labelPosition=center;align=center;html=1;outlineConnect=0;fillColor=#CCCCCC;strokeColor=#6881B3;gradientColor=none;gradientDirection=north;strokeWidth=2;shape=mxgraph.networks.virtual_pc;" vertex="1" parent="VO_4vQ80IrR_DuiOpRqN-22">
          <mxGeometry x="12.142857142857142" y="6.25" width="28.571428571428573" height="18.75" as="geometry" />
        </mxCell>
        <mxCell id="VO_4vQ80IrR_DuiOpRqN-13" value="" style="shape=loopLimit;whiteSpace=wrap;html=1;fillColor=none;" vertex="1" parent="VO_4vQ80IrR_DuiOpRqN-22">
          <mxGeometry width="100" height="50" as="geometry" />
        </mxCell>
        <mxCell id="VO_4vQ80IrR_DuiOpRqN-14" value="" style="fontColor=#0066CC;verticalAlign=top;verticalLabelPosition=bottom;labelPosition=center;align=center;html=1;outlineConnect=0;fillColor=#CCCCCC;strokeColor=#6881B3;gradientColor=none;gradientDirection=north;strokeWidth=2;shape=mxgraph.networks.virtual_pc;" vertex="1" parent="VO_4vQ80IrR_DuiOpRqN-22">
          <mxGeometry x="12.142857142857142" y="6.25" width="28.571428571428573" height="18.75" as="geometry" />
        </mxCell>
        <mxCell id="VO_4vQ80IrR_DuiOpRqN-15" value="" style="fontColor=#0066CC;verticalAlign=top;verticalLabelPosition=bottom;labelPosition=center;align=center;html=1;outlineConnect=0;fillColor=#CCCCCC;strokeColor=#6881B3;gradientColor=none;gradientDirection=north;strokeWidth=2;shape=mxgraph.networks.hub;" vertex="1" parent="VO_4vQ80IrR_DuiOpRqN-22">
          <mxGeometry x="57.85714285714286" y="18.75" width="28.571428571428573" height="6.25" as="geometry" />
        </mxCell>
        <mxCell id="VO_4vQ80IrR_DuiOpRqN-16" value="" style="shape=loopLimit;whiteSpace=wrap;html=1;fillColor=none;" vertex="1" parent="VO_4vQ80IrR_DuiOpRqN-22">
          <mxGeometry width="100" height="50" as="geometry" />
        </mxCell>
        <mxCell id="VO_4vQ80IrR_DuiOpRqN-17" value="" style="fontColor=#0066CC;verticalAlign=top;verticalLabelPosition=bottom;labelPosition=center;align=center;html=1;outlineConnect=0;fillColor=#CCCCCC;strokeColor=#6881B3;gradientColor=none;gradientDirection=north;strokeWidth=2;shape=mxgraph.networks.virtual_pc;" vertex="1" parent="VO_4vQ80IrR_DuiOpRqN-22">
          <mxGeometry x="12.142857142857142" y="6.25" width="28.571428571428573" height="18.75" as="geometry" />
        </mxCell>
        <mxCell id="VO_4vQ80IrR_DuiOpRqN-18" value="" style="fontColor=#0066CC;verticalAlign=top;verticalLabelPosition=bottom;labelPosition=center;align=center;html=1;outlineConnect=0;fillColor=#CCCCCC;strokeColor=#6881B3;gradientColor=none;gradientDirection=north;strokeWidth=2;shape=mxgraph.networks.hub;" vertex="1" parent="VO_4vQ80IrR_DuiOpRqN-22">
          <mxGeometry x="57.85714285714286" y="18.75" width="28.571428571428573" height="6.25" as="geometry" />
        </mxCell>
        <mxCell id="VO_4vQ80IrR_DuiOpRqN-20" value="" style="fontColor=#0066CC;verticalAlign=top;verticalLabelPosition=bottom;labelPosition=center;align=center;html=1;outlineConnect=0;fillColor=#CCCCCC;strokeColor=#6881B3;gradientColor=none;gradientDirection=north;strokeWidth=2;shape=mxgraph.networks.virtual_pc;" vertex="1" parent="VO_4vQ80IrR_DuiOpRqN-22">
          <mxGeometry x="12.142857142857142" y="6.25" width="28.571428571428573" height="18.75" as="geometry" />
        </mxCell>
        <mxCell id="VO_4vQ80IrR_DuiOpRqN-21" value="" style="fontColor=#0066CC;verticalAlign=top;verticalLabelPosition=bottom;labelPosition=center;align=center;html=1;outlineConnect=0;fillColor=#CCCCCC;strokeColor=#6881B3;gradientColor=none;gradientDirection=north;strokeWidth=2;shape=mxgraph.networks.hub;" vertex="1" parent="VO_4vQ80IrR_DuiOpRqN-22">
          <mxGeometry x="57.85714285714286" y="18.75" width="28.571428571428573" height="6.25" as="geometry" />
        </mxCell>
        <mxCell id="VO_4vQ80IrR_DuiOpRqN-23" value="机房" style="text;html=1;align=center;verticalAlign=middle;resizable=0;points=[];autosize=1;strokeColor=none;fillColor=none;" vertex="1" parent="VO_4vQ80IrR_DuiOpRqN-22">
          <mxGeometry x="12.139999999999986" y="30" width="40" height="20" as="geometry" />
        </mxCell>
        <mxCell id="VO_4vQ80IrR_DuiOpRqN-27" value="" style="group" vertex="1" connectable="0" parent="1">
          <mxGeometry x="356.9999697673951" y="960.0032706262941" width="102.86006046520981" height="23.630000000000003" as="geometry" />
        </mxCell>
        <mxCell id="VO_4vQ80IrR_DuiOpRqN-4" value="" style="fontColor=#0066CC;verticalAlign=top;verticalLabelPosition=bottom;labelPosition=center;align=center;html=1;outlineConnect=0;fillColor=#000000;strokeColor=#6881B3;gradientColor=none;gradientDirection=north;strokeWidth=2;shape=mxgraph.networks.security_camera;rotation=-15;" vertex="1" parent="VO_4vQ80IrR_DuiOpRqN-27">
          <mxGeometry x="71.4300302326049" y="3.626729373705871" width="30" height="15" as="geometry" />
        </mxCell>
        <mxCell id="VO_4vQ80IrR_DuiOpRqN-24" value="" style="line;strokeWidth=2;html=1;fillColor=none;" vertex="1" parent="VO_4vQ80IrR_DuiOpRqN-27">
          <mxGeometry x="24.430030232604906" y="13.62672937370587" width="60" height="10" as="geometry" />
        </mxCell>
        <mxCell id="VO_4vQ80IrR_DuiOpRqN-26" value="" style="fontColor=#0066CC;verticalAlign=top;verticalLabelPosition=bottom;labelPosition=center;align=center;html=1;outlineConnect=0;fillColor=#000000;strokeColor=#6881B3;gradientColor=none;gradientDirection=north;strokeWidth=2;shape=mxgraph.networks.security_camera;flipV=0;flipH=1;rotation=15;" vertex="1" parent="VO_4vQ80IrR_DuiOpRqN-27">
          <mxGeometry x="1.4300302326049064" y="3.626729373705871" width="30" height="15" as="geometry" />
        </mxCell>
        <mxCell id="VO_4vQ80IrR_DuiOpRqN-94" value="" style="shape=image;verticalLabelPosition=bottom;labelBackgroundColor=default;verticalAlign=top;aspect=fixed;imageAspect=0;image=data:image/png,iVBORw0KGgoAAAANSUhEUgAAAMgAAADICAYAAACtWK6eAAAAAXNSR0IArs4c6QAADy5JREFUeF7tnQnwftUYx79NssxUBpORNWVpFKaxFir7VraJkhAlyRYJjaUsYyxZZmisWVukBiWmhSghRImYbEkmESFbZJuv/7nzv/1/733fe889y3PO+Z6Zd2rqnnOe5/vcz+/ec+45z9kIKlJACgwqsJG0kQJSYFgBAaK7QwosUUCA6PaQAgJE94AU8FNATxA/3VSrEQUESCOBlpt+CggQP91UqxEFBEgjgZabfgoIED/dVKsRBQRII4GWm34KCBA/3VSrEQUESCOBlpt+CggQP91UqxEFBEgjgZabfgoIED/dVKsRBQRII4GWm34KCBA/3VSrEQUESCOBlpt+CggQP91UqxEFBEgjgZabfgoIED/dVKsRBQRII4GWm34KCBA/3VSrEQUESCOBlpt+CggQP91UqxEFBEgjgZabfgoIED/dVKsRBQRII4GWm34KCBA/3VSrEQUESCOBlpt+CggQP91UqxEFBEgjgZabfgoIED/dVKsRBQRII4GWm34KCBA/3VSrEQUESCOBlpt+CggQP91UqxEFBEgjgZabfgoIED/dVKsRBQRII4GWm34KCBA/3VSrEQUESCOBlpt+CggQP91UqxEFBEgjgZabfgoIED/dVKsRBQRII4GWm34KtALIAQC2B3Ar99vS/fM/AC4H8Kve7wQAP/KTU7VqU6BmQO4FYH8A+wDYdGLgvg3gswDOAHD+xLq6vCIFagRkRwCHAnhioDidCuBDAE4O1J6aKUiB2gDhE+ODkfQ/zbX96Ujtq1mDCtQCyMYAjgWwZwKNz3SgnJigL3WRWYEaAHkAgHMz6HiWe/U6PkPf6jKRAqUDwtmoKxJpNdTNOe6JckxmO9R9BAVKB+SnALaJoItPk19zoHzMp7Lq2FSgZEA4WA41UxUyOue5V6+jQzaqtvIoUCogRwA4PI9ko3vl9xPOqPH339G1dKEpBUoE5P4A+N6/iSklh425wEHCbynXFWKzzHQKlAjIKQB2LzCCF7lXLz5Rri3Q/iZNLg2QgwAcVXikLu6B8tfCfane/JIA2dq9Wt2mkqhc0hujXFOJT9W5URIgfIffr7oIAJyq5msX/bu6Qv+KdqkUQPYAUPvSjkt7r15XFX1XVWR8CYBwqTpnrXaoSPdlrnB/Sjc9fGUjPpt1swRA3gTgMLMKxjOMS2i6Vy9u6FLJoIB1QHYGcHYGXSx1+Zveq9dllgxrwRbrgHAPxiNbCMQIH3/fe/X6+YjrdUkABSwDcjCAdwbwsbYm/th79fpxbc5Z88cqINu6gfkW1gQzZM+fe69eSjIRKTBWAfk4gKdH8rm2Zv/ee/X6QW3O5fbHIiB7u+2zubUprf9/9kD5XmnGW7XXGiC3cLNW21kVrAC7/t0bo3ynAHtNm2gNkLcDeKlpxcoyjstX+C3lW2WZbcdaS4A83CVqs6NOPZZ8xIHyjXpcSuOJJUC+DGDXNG432wsnP/hU+WqzCkx03AogrwDw5om263J/BY5zT5Sv+DfRRk0LgNzTffPYvA3JTXnJRN0co3zJlFWGjLEACIP0FEOatGjKSe7V6/QWnV/mc25AngXgwwqKGQWY0Z5PlC+YsSizIbkBYbK1nTJroO7XKvA5Bwr/2XTJCQiTvilTuu3bj08SPlH4ZGmy5ATkSACHNKl6eU5zbMLpYY5Vmio5AWFW9L2aUrt8ZznbxScKJ1aaKDkB0YfBcm8xfj8hKPyeUnURIFWHN7pz/CLPVy9+oa+y5ATkE+6AzSqFbcwprvHiE4VrvqoqOQF5G4CXVaWmnOGq4S4TSxVq5ARE07xV3EILneA+lG6pPfenFFtyAkLR9KGw2FtnlOHc2dglweOOx+JKbkCeDOBTxakmg6cqwL3yHSjcQ19MyQ0IhRIkxdwusw1l9pVujMKsLOaLBUAo0oNcetFHm1dMBoZQgPm8ujEK83yZLVYA6QR6DoBnA+Axayr1K8AMkd2rFzNHmivWAOkEepoD5SHmFJNBMRRgzuHu1Yu5iM0Uq4B0AnEqmE+U3cwoJkNiKsAs9nz14vbrf8TsaGzb1gHp/GACa4KinYdjI1v2dWcBeC7Wnb6VtZQCSCcSB/MEZd+sqqnzFArwxK39ARCWbKU0QDqh7gHgQAfLjbKpp45TKHC/nInvSgWkC8ztALzYgXKzFNFSH8kV4KLWZyTv1XVYOiCdbpsBONSBUssx0bnuCYv9cgx6Rg7DagGkr90rHSh3ziGo+oyiAJNHPC5KyysarRGQzmWOUfhjYjqVshW4BsBNc7hQMyCdntz3znGKvs7nuMPC9ZnlXs3SaTjNJrXE99iXA9DX+UmymbiYaYf40Th5aQmQTlxOG74KwO7J1VaHvgowA+dHfSvPqdciIJ1ed3Wg6CzEOXdQ/Lp/ArAVgCyrflsGpAvtLQG8GsAL48daPXgo8DoAR3jUC1IlNyA3BMCTpe4z4M0vAHwTQIpjjmkLX714Vom+zge5vWY3khUOWp8TkO1d4rG7j5CRoPBDEf+S/HrE9XMveYmDhYeKqgBHAWAWGv4B4Z6dFCU7HLkB4WrN93konVI4Hc8A7LPBsdxbut2fsV5JL3Gzjad43BvBq+R8gsxJPcr9AocFV2Ntg1y+8tYE/VjsgnszdgHAXX+LCkHhk5YahSqfdHBcHqrBue2UCgj9vjeA2OeAnwhgj7kiF1j/MwCeNNJugvI8N9Ex537i2M/cH6M5Do3Ub/CyOU8QNvpFN8Cfa8ey+j8BcKeYHRhsmx9TOd6YWggKX5tZ/yYTKl/gJkbOnFAn2aUlA0KRuHyEs1yxyrUNzWj9zn2tPnemmB0oLwKwagsCj9/jk4N9myylA8IgvDuistzyuU3E9q00zac5p9tDpgntQDkAAP+9X/7mwHiPFQGG7CgdkGMjZ4if+xpoPf60711usB3L1g4ULlfn6gWOb97r0s7G6jNYu6UDwoNcHhxMjbUNcU8009HUWJjZkP6NTf16R5eNn5kw/wCA2n8gwURJVu0FyHL5eVMMTXNmDdzMznmex54Axk6n7gfgtQBuv6BfQlItKAJk9Z32jsCvIOe4o69vsLrrKFfwZuZs05hyFwCHA9h7xMVVglI6ICPitvISvmowTT9vmh8uuPq2AM4GsPXKlsZdwH0pVwHgV3r+Nh1XbfZVPH6ABxaNndTgbkw+NTYcYK8ypCpQBMj6cF8M4DEAfrngDtgVAAfsc8sLsG5dU1e27YGyxdzGl9T/LoCDRk6Jc40cweBYY06pAhQBcv1b4P1uH/uiG2OnmTMv/Co/lBnyDi7RBJ8oTGUUsvCAzWeObJDT5oQj5CLNokERIGvvnCcAOHnghuIThrNatx55w/EyDoS5hGLMnD/3pnBATFBCZGXhOqkjR9i6gwODvscqDwPAc9aLKgJkbbj4ZX5nAENHhnXz+tyJuGxcwlc2/vXm78qJdwXzfHWgMIvk1MK+Od44bUTFQxwcm4+4ds4l3LLAbc48baqYIkAWh4r7TrisflV5hPsOw4E8fxzkc7k2p4ZPB3DdqgZW/H/OdBEU5iO+78i2TnBZXFYdI8C9+Xyd4lMxVdluYCIkVf+T+xEgw5JxrwpXqVopTL9JULgEfai8BsAbRxjMrQKE48Yjrg15Ccc2V4dsMHZbAmS5wlwWwR10lk4/4uwSQXlUz/SfAeCr0tDYqbv0gQ4MrrtKXbgB6vGpO53bnwBZrSC/OnN25/zVlya9gt9TOD65CABtZPbBZYVPDP42Tmrl+s54/uSYMVEm8xZ3K0DGh4Pv9sw0/vnxVa535d0A8C99jpOTuN5q7ncNT7f/X+2kzP172y5ApkvHRXrHuL/ai768dy1yoxX/anY//nd+tefSlZRpbCwcs/3Q3AfhTA/zuhoCxFe5dfX+4p4KPNaYsBAK/vgN4+ZLmuZ3hwvndT26NmHkeqpc5TgAPJS1yCJA8oSNyQ64DyNF4T6MVYP3mHbw2Ly5uxRj2re0bQGSR3rO5qRMa8Mv828BEHO91yIlmU+XfRdbBEj60DE5AT8wpi7cOswn1/MTdpz1fMEQfgqQECpOa4Nw5MzgwWU0BCXmuisqMmXfyTQFE14tQBKK7RYsxspIONWTpzpQhvIiT22vf/2/XL7lVBMRc2zVGCSaetMa/j6Ax07Y5jqtdb+r+dGQTxP+pqxQXtUbVy5b+UOwylYBMkuhMJU5i8Mct5eFaS54K9xrTkgODtAyU/rwqbTsG1GAbtI0oVes+Dqf6s75ZiYQ62VHB8qcr+78EMp1YVUUARIvjFe4zVVvCJyQLZ7F61tmPmI+UbiLckrhKVBcls+UrVUUARI+jASj22aa4iyT8B6sb5GnAxMUbgkeU1Jl3R9jS5BrSgeE66JyF+4W5G45HhdAOM5LdMhPKr+7Yw4IyrJURb91Tw+r4ywvvWoAJGZmRS9RK63E4yYIyVCOrNdnXvMVRXYBEkXWqhvlMhmC0t/ZeLRLY1qd4wKkupAmc2hfl4SB33dSLt9P5iA7Kh0QZglnQjQVKRBFgdIB4UpRrhhVkQJRFCgdEG5jTXGGehTx1ah9BUoGpIrVovZvkbYtLBkQbmktYflG23dY4d6XCgj3OHOvs4oUiKpATkD2AnD8RO94LjrP8Yh9PvpEs3R5rQrkBIRp/rlPejcATNY8VLiM4+vuEBuOO1SkQDIFcgLSOckTlriMYVHhup5Lk6mhjqTABgpYAERBkQJmFRAgZkMjwywoIEAsREE2mFVAgJgNjQyzoIAAsRAF2WBWAQFiNjQyzIICAsRCFGSDWQUEiNnQyDALCggQC1GQDWYVECBmQyPDLCggQCxEQTaYVUCAmA2NDLOggACxEAXZYFYBAWI2NDLMggICxEIUZINZBQSI2dDIMAsKCBALUZANZhUQIGZDI8MsKCBALERBNphVQICYDY0Ms6CAALEQBdlgVgEBYjY0MsyCAgLEQhRkg1kFBIjZ0MgwCwoIEAtRkA1mFRAgZkMjwywoIEAsREE2mFVAgJgNjQyzoIAAsRAF2WBWAQFiNjQyzIICAsRCFGSDWQUEiNnQyDALCggQC1GQDWYVECBmQyPDLCggQCxEQTaYVUCAmA2NDLOggACxEAXZYFYBAWI2NDLMggICxEIUZINZBQSI2dDIMAsKCBALUZANZhUQIGZDI8MsKCBALERBNphVQICYDY0Ms6CAALEQBdlgVgEBYjY0MsyCAv8DZQ7t2FCW2mIAAAAASUVORK5CYII=;flipV=1;flipH=0;direction=south;rotation=0;" vertex="1" parent="VO_4vQ80IrR_DuiOpRqN-27">
          <mxGeometry x="39.620000000000005" y="-10" width="33.63" height="33.63" as="geometry" />
        </mxCell>
        <mxCell id="VO_4vQ80IrR_DuiOpRqN-30" value="" style="group" vertex="1" connectable="0" parent="1">
          <mxGeometry x="454" y="890" width="10" height="70" as="geometry" />
        </mxCell>
        <mxCell id="VO_4vQ80IrR_DuiOpRqN-31" value="" style="line;strokeWidth=9;direction=south;html=1;perimeter=backbonePerimeter;points=[];outlineConnect=0;fillColor=none;" vertex="1" parent="VO_4vQ80IrR_DuiOpRqN-30">
          <mxGeometry y="14" width="10" height="56" as="geometry" />
        </mxCell>
        <mxCell id="VO_4vQ80IrR_DuiOpRqN-32" value="" style="line;strokeWidth=2;direction=south;html=1;fillColor=none;" vertex="1" parent="VO_4vQ80IrR_DuiOpRqN-30">
          <mxGeometry width="10" height="21.466666666666665" as="geometry" />
        </mxCell>
        <mxCell id="VO_4vQ80IrR_DuiOpRqN-33" value="" style="line;strokeWidth=2;html=1;fillColor=none;" vertex="1" parent="1">
          <mxGeometry x="435" y="910" width="48" height="10" as="geometry" />
        </mxCell>
        <mxCell id="VO_4vQ80IrR_DuiOpRqN-36" value="" style="shape=image;verticalLabelPosition=bottom;labelBackgroundColor=default;verticalAlign=top;aspect=fixed;imageAspect=0;image=data:image/png,iVBORw0KGgoAAAANSUhEUgAAAMgAAADICAYAAACtWK6eAAAAAXNSR0IArs4c6QAAEKxJREFUeF7tXXnwf9UYfpoxIhpGxUSyFJEtWyRLlqlEUSZbGCLUkHVknaxjG7vIzpR9JztpRBjL2EKIiKxDI9m3eep++n36dO+55z33nHvP8rwz3/n+8X3P9rzv8z33nPOe92wFiRAQAoMIbCVshIAQGEZABJF3CAEHAiKI3EMIiCDyASEQhoBmkDDcVKoRBESQRgytYYYhIIKE4aZSjSAggjRiaA0zDAERJAw3lWoEARGkEUNrmGEIiCBhuKlUIwiIII0YWsMMQ0AECcNNpRpBQARpxNAaZhgCIkgYbirVCAIiSCOG1jDDEBBBwnBTqUYQEEEaMbSGGYaACBKGm0o1goAI0oihNcwwBESQMNxUqhEERJBGDK1hhiEggoThplKNICCCNGJoDTMMAREkDLcWSu0LYDcA2xU+2PMAnAHgpJBxiCAhqNVb5kYADu5+9qhsmGcBuJZ1TCKIFbH69K+4RooD6xvexUb0IgDHWMYogljQqkv3LmvE2LGuoQ2O5nwAOwD4m+94RRBfpOrQ45pi9Qm1Zx1DMo/ijgBO8S0lgvgiVa7eNmukOARA6zYXQcr15ag9v31HDJJi56g1l12ZCFK2/Sb1nrs0/IQiKfaeVFO9hUWQem3bO7JLrZGC5Ni6sfFbhyuCWBErVH+vtbXFroWOYYluiyBLoD5TmzutkYKGltgREEHsmGVf4p5rxNg2+97m3UERJG/7ePfu5muk2N27lBTHEBBBxhDK+O9XXiPFfhn3s+SuiSAFWu+ANWKUHj2bO/wiSO4W6vpXc+RsziYQQTK2TkuRs7maQQTJ0DItRs5maIYLuiSCZGIZRc5mYoiNboggC9pFkbMLgu/ZtAjiCVRMNUXOxkQzbV0iSFp8L6pdkbMzAR25GREkMqDr1SlyNiG4M1UtgiQAWpGzCUBdqEoRJBLwipyNBGRm1YggEw2iyNmJAGZeXAQJMJAiZwNAK7SICOJpOEXOegJVmZoIMmJQRc5W5vHG4YggPYApctboRRWriyCdcRU5W7GXTxha8wRR5OwE72mgaJMEUeRsA54daYjNEESRs5E8prFqqieIImcb8+jIw62SIIqcjewlDVdXDUEUOduwFyccevEEUeRsQu9Q1WXeSVfkrDx3LgSKmkEUOTuXW6idFQLZE0SRs3LWJRHIkiCKnF3SJdT2OgJZEUSRs3LO3BBYnCCKnM3NJdSfxWcQRc7KCUtBYNYZRJGzpbiF+jnrLtatALwSwJ7CXQgUhkDyGYRnF28BwM8qiRAoDYHkBPkwgINKQ0X9FQIdAkkJwvOM3wpqIVAwAkkJsg+AzxcMjrouBEQQ+YAQcCAggsg9hIAIIh8QAmEIaAYJw02lGkGA17fP8h3rVr6KnZ51kX4CgC8D+IGxnVLVrwfgcAC3LHUAlff7qwBubRljSoJ8C8BNLZ2pRHdbACfqrChLa94AwPctPUtFkNMB3BbAuZbOVKS7N4AvVjSeGoZiJgcHnYogbwRwRA2oThjDmQCuPaG8isZB4HsAeAUjSFIR5FkAnhnUo3oK8UCVazbJcgi8AcDDpzQvgkxBz11WBEmHrU/NDwHwVh9Fl44IMhXB4fIiSDpsx2rmbuIZY0o+fxdBfFAK0xFBwnCbUurbAPaYUsFmWREkJpoXr0sESYdtX83HAzgydpMiSGxEt9QngqTDdrPmBwHgoXR0EUGiQ3pRhSJIOmxXNf8TAM83fpKqKREkFbIX3pvRNm86fL8JgFk6k4oIkg5eESQdtscBeFS66rfUXAtBtusCBK8J4BoA+JtJJRi1+fPuN3c45gyaFEHSePBhAN6RpupL1loyQe7dxXsx5ss3KJLT8vsAfAbA1xODLILEBfg8ADcB8LO41bprK5Eg/K5/MoD9JgL1QQCvBnDyxHqGiosg8YD92lI52EoiCJ9kez6AJ8bD/YKamOPr5QC+E7leESQOoExQ+Jg4VdlrKYUgV+riag60D9GrBFMZPQ7AO720/ZREED+cXFr3BfDu6dWE11ACQXhFkusFkiS1PBbAKyI1IoKEA/mHbgv3F+FVxCmZO0GYA/grxqHy8IifS5cGcJXux1IFP+FeYikwoCuChIF4GgBeOMtCciYIZ46feqL0OQAnAfjUwFbunQHcCcD+AG7mUSd3yN7roedSEUHsAL4UwBPsxdKVyJUglwPA/yQ3Hhk61wz8JOJlfB/hrHJ0t+jjy7oumUoSEcTHIlt0Du224G2lEmvnSpA3ddlBhoZ/DoCjADCRdojsBoBtuKZytnELAL8OaaBL0apQk3HwfgWAn9L8nZ3kSJBDALzfgRSTIfCTiWuNqfK6kSuZU64OawYZtw4x4qdvtpIbQbYGcKojr9TvAhbdY+C7SDJlFhFB3Mi/GMCTxoyz9N9zIwgTPRzrAOUeAD4SGbTLA/iCI1wldBYRQYYNxa8ERjJkL7kR5GMA+HR0n3AxznMKl/DNxOsA4J1kLvAZd8UZaeyUnJkvOJP0SWhYtQhySTS5K8l132+yZ0bXwZwIws+rPwG4bA94/LRiykhXoJprYf92AA8YMQoPI4fuFzCVqDW4UQS5OOCfBHDXUoix6mdOBGFULv/b98nY/vjvAWw/Av4fATAsfkgYasJ2+uS5AJ5hNK4IsgWwFwB4ihG/LNRzIohr/XE7RypPBhs+2BPNdwG434AuZ4+hWYKn+Xt5trFSE0GA/wDgeiP2utFoinD1nAgy5OjczuXnV588DACz51nEteg+G0DfASK/mXe0NKJzkAsup90BAGf3YiUnggz9x+WtQIad9An/s/OQySIMR2HISZ8wXOVuA3/j2ujvhoZankF4gMvnwouXnAjCBTivym4K3xe5zQDS3BUZIs+Qcf4M4AoDf2TS7YcO/O36AH5osHirBHkegKcbcMpaNSeC/G8AqVMA8NmsPvkLAMZtWcQ1I9G4Tx2ojGsQS2RxawT5KwDGr3GrvhrJiSBDM4iLIENrBpeBPu74jHqVI1sG1yCW/fuWCMLHkhgywm36qiQnggw5lIsg7wHAKFCLuA4cebB4r57KuPboO59xtdsKQWiD+1gMUJJuTgRxbdfyNmHff6ex0JQ+W/DaLhfjfcLHVpipb1O49uAaxCItEOTZI6FBFryy1M2JIC5n56V9Xt7vE8tO1kcdbwfuDoBPx/UJZxbrTFUzQfjP6v4AeDpeteREEP6HHnpg8Rvd3YwhYwz951/Xp/Pf0GFNxnm9bODvD+we5rQ4Q60E4eW0fQFwN7B6yYkgBNs1GzwCwOsdFnlkd11z1w0dLv657ejKxsedMLbdRyDulHGBzt8WqZEgzKDOTOrNSG4EoSM/ZwD9sVlkVYxnJvwPx3UDXxniD7cgXcKtXW7x9gmv9fJzwiq1EYSxaIxJa0pyIwgTKnAKZ5K4Pknxei7XFtyJGRLXot7lLLUQhFvbnDWYrrU5yY0gNADXAa57HzEvTY2Rw7WoH3OWGgjCi2S8n3P+2GBr/XuOBNmlm0VcoekxXjAdIwdtHjp7sGzpBEkxWxfHoxwJQhB9zjf4xC8TvHEHyyo+UcAhW7vr/SiZILwrzjvjvsJoa96n4Vrt6t1zEwxYpB2LllwJQlA/AODgEXQ59fNknDcGh7aI16s4qMuLxawoLuE6iDpTPi1KJAjfUuHszL77CncNXwuA1503JfQ+v2/byfVyJggHz7fn+MnlIzznoGF/DIDJqPmzSj3Ke+p3H4gW7qv7qhPyYa3qK40gXITzH4glpJ9BpCQH84z1Scg9Gh9bz6aTO0EIBA+ktp0NkQvvvvtmanR1qySChDxpxp2tt3nYhTc1mfiiSCmBIAR2DmfjjMPPhJA1TZ/x5+hzDKdzhfEM1f80w5kIZxkGnBYppRCE4IZE7voa5dMAGE7C7CmxJHeC/AjAEV1OMN8x01/4ScWoBl8RQXqQSrU4Y/4q/sR6/pen8wxfcYWw+DrCpl7OBGE0M5Mp/MswuJ0BfMjwHuSqahFkRoKsmiJJeDV2T4OB11W5xnhzImKs2smVIGMplPogZbI35kQOERFkAYKsmuSCmifrTBDAbIouYXZFbgfzc4o34FJLbgT5R/fsw1AGySE8eLZB3EJFBFmQIOtN8110Jn1Y/fBvvH+++jk31MKB5XIiyHcBHAngS8ax8IyJ76lMEREkE4JMMWKKsrkQhE9JMJnCf42D5Gdo6CfselMiiAjS63o5EITPZg9laRniC0NFYj6eKYKIINkRhIerPN9gvJpFGNrDEJ+YIoKIIFkRhPmFH23M4cUBMPbsszGZ0dUlgogg2RCE14oPC3RyBily6zu2iCAiSBYEYWg5D2hDxeeKQUjdIogIsihBmD2d6w3enZ8iIkgPeiXFYk0x/hJl59jF4rkGycGQmakigsxIEOa4nXrANNXgS5f3ydU1pY/MRHn4lAo2yoogMxKE4Rz7RTReaVXtAIC386z5fH3HyefM+KxZTBFBZiQIm+IePHdGWhQGBPKOdmz5ZfdJFfusgv0UQWYmCJtjGDkDA/kcVwvCgEm+l2h99coHm5M7csS60LXZpgiyAEF8DC+dcQSO74INxzXDNUonCKMAmHtgmxEITJlWUu1ihZtJJTcReLwjqXZMtEomyFiywXWcTD5vUgawjzElTEwDtlbXmd0n1VxPmpVKED7KylzMvmLyeZOyCOJrg8l6n+jIwRRGc0mJBOE1YO4WWsTk8yZlEcRih2Bd1xNxwZV6FCyRICFfNCafNymLIB5uFq7y727WeE14FZNKiiA98FkJwir43sZ1J5lChTcRYNpUhoykCDf3RVsEiUQQJjZ+oS/q0htFgKl0SI6Yt/hGG+1RSEUQvhqc4mCTQ2A6WT5RYRHTpGBSXusFM2Mw9Y4kHAFG4TKe6pjwKqKWTEWQlBEVxM4acmPyeZPyhjl8D2aiWrGSyvgwzanGxG2ph35swucKYuU73sTgbAA7GYEx+bxJ2dgRqZeFQEqCEAnG5Z0GgClPpwgz9jORHZ8Fv1pARSafNykHdEZFykEgNUFyQcLk8yblXEaofiRBQATpgVUESeJrRVaaapGeGxgmnzcp5zZS9ScqAiKIZpCoDlVbZfrEEkFq8+mo4xFBRJCoDlVbZSKICFKbT0cdjwgigkR1qNoq0yJdBKnNp6OORwQRQaI6VG2V6RNLBKnNp6OORwQRQaI6VG2ViSAiSG0+HXU8IogIEtWhaqssJAFCiRiYwqtMyiWioT57IyCCaAbxdpYWFUUQEaRFv/ce844AzvHWLlfR9NVkUi4XE/XcE4E5XsXy7EoyNZPPm5STdVkV54QA73rzGelaxeTzJuVaEdO4LoEAkyHwKYEcZVcAzKhzQGDnTD5vUg7skIoJgRQI8D34EwMqNvm8STmgMyoiBFIicByAo4wNmHzepGzsiNSFQGoEmN2TWT4tYvJ5k7KlF9IVAjMgEHJ2Y/J5k/IMA1YTQsCCgAhiQUu6zSEggjRncg3YgsDuAE63FABg+moyKRs7InUhkBqBywDgu/G7GBoy+bxJ2dAJqQqBuRDYH8AJALb3bNDk8yZlzw5ITQjMjcBuAI4GcCiAHUYaN/m8SXnuUas9IbA0AiLI0hZQ+1kjIIJkbR51bmkERJClLaD2s0ZABMnaPOrc0giIIEtbQO1njYAIkrV51LmlERBBlraA2s8aAREka/Ooc0sjIIIsbQG1nzUCIkjW5lHnlkZABFnaAmo/awT+D1BH6ud2nbdZAAAAAElFTkSuQmCC;" vertex="1" parent="1">
          <mxGeometry x="430" y="897" width="20" height="20" as="geometry" />
        </mxCell>
        <mxCell id="VO_4vQ80IrR_DuiOpRqN-39" value="" style="shape=image;verticalLabelPosition=bottom;labelBackgroundColor=default;verticalAlign=top;aspect=fixed;imageAspect=0;image=data:image/png,iVBORw0KGgoAAAANSUhEUgAAAMgAAADICAYAAACtWK6eAAAAAXNSR0IArs4c6QAAEKxJREFUeF7tXXnwf9UYfpoxIhpGxUSyFJEtWyRLlqlEUSZbGCLUkHVknaxjG7vIzpR9JztpRBjL2EKIiKxDI9m3eep++n36dO+55z33nHvP8rwz3/n+8X3P9rzv8z33nPOe92wFiRAQAoMIbCVshIAQGEZABJF3CAEHAiKI3EMIiCDyASEQhoBmkDDcVKoRBESQRgytYYYhIIKE4aZSjSAggjRiaA0zDAERJAw3lWoEARGkEUNrmGEIiCBhuKlUIwiIII0YWsMMQ0AECcNNpRpBQARpxNAaZhgCIkgYbirVCAIiSCOG1jDDEBBBwnBTqUYQEEEaMbSGGYaACBKGm0o1goAI0oihNcwwBESQMNxUqhEERJBGDK1hhiEggoThplKNICCCNGJoDTMMAREkDLcWSu0LYDcA2xU+2PMAnAHgpJBxiCAhqNVb5kYADu5+9qhsmGcBuJZ1TCKIFbH69K+4RooD6xvexUb0IgDHWMYogljQqkv3LmvE2LGuoQ2O5nwAOwD4m+94RRBfpOrQ45pi9Qm1Zx1DMo/ijgBO8S0lgvgiVa7eNmukOARA6zYXQcr15ag9v31HDJJi56g1l12ZCFK2/Sb1nrs0/IQiKfaeVFO9hUWQem3bO7JLrZGC5Ni6sfFbhyuCWBErVH+vtbXFroWOYYluiyBLoD5TmzutkYKGltgREEHsmGVf4p5rxNg2+97m3UERJG/7ePfu5muk2N27lBTHEBBBxhDK+O9XXiPFfhn3s+SuiSAFWu+ANWKUHj2bO/wiSO4W6vpXc+RsziYQQTK2TkuRs7maQQTJ0DItRs5maIYLuiSCZGIZRc5mYoiNboggC9pFkbMLgu/ZtAjiCVRMNUXOxkQzbV0iSFp8L6pdkbMzAR25GREkMqDr1SlyNiG4M1UtgiQAWpGzCUBdqEoRJBLwipyNBGRm1YggEw2iyNmJAGZeXAQJMJAiZwNAK7SICOJpOEXOegJVmZoIMmJQRc5W5vHG4YggPYApctboRRWriyCdcRU5W7GXTxha8wRR5OwE72mgaJMEUeRsA54daYjNEESRs5E8prFqqieIImcb8+jIw62SIIqcjewlDVdXDUEUOduwFyccevEEUeRsQu9Q1WXeSVfkrDx3LgSKmkEUOTuXW6idFQLZE0SRs3LWJRHIkiCKnF3SJdT2OgJZEUSRs3LO3BBYnCCKnM3NJdSfxWcQRc7KCUtBYNYZRJGzpbiF+jnrLtatALwSwJ7CXQgUhkDyGYRnF28BwM8qiRAoDYHkBPkwgINKQ0X9FQIdAkkJwvOM3wpqIVAwAkkJsg+AzxcMjrouBEQQ+YAQcCAggsg9hIAIIh8QAmEIaAYJw02lGkGA17fP8h3rVr6KnZ51kX4CgC8D+IGxnVLVrwfgcAC3LHUAlff7qwBubRljSoJ8C8BNLZ2pRHdbACfqrChLa94AwPctPUtFkNMB3BbAuZbOVKS7N4AvVjSeGoZiJgcHnYogbwRwRA2oThjDmQCuPaG8isZB4HsAeAUjSFIR5FkAnhnUo3oK8UCVazbJcgi8AcDDpzQvgkxBz11WBEmHrU/NDwHwVh9Fl44IMhXB4fIiSDpsx2rmbuIZY0o+fxdBfFAK0xFBwnCbUurbAPaYUsFmWREkJpoXr0sESYdtX83HAzgydpMiSGxEt9QngqTDdrPmBwHgoXR0EUGiQ3pRhSJIOmxXNf8TAM83fpKqKREkFbIX3pvRNm86fL8JgFk6k4oIkg5eESQdtscBeFS66rfUXAtBtusCBK8J4BoA+JtJJRi1+fPuN3c45gyaFEHSePBhAN6RpupL1loyQe7dxXsx5ss3KJLT8vsAfAbA1xODLILEBfg8ADcB8LO41bprK5Eg/K5/MoD9JgL1QQCvBnDyxHqGiosg8YD92lI52EoiCJ9kez6AJ8bD/YKamOPr5QC+E7leESQOoExQ+Jg4VdlrKYUgV+riag60D9GrBFMZPQ7AO720/ZREED+cXFr3BfDu6dWE11ACQXhFkusFkiS1PBbAKyI1IoKEA/mHbgv3F+FVxCmZO0GYA/grxqHy8IifS5cGcJXux1IFP+FeYikwoCuChIF4GgBeOMtCciYIZ46feqL0OQAnAfjUwFbunQHcCcD+AG7mUSd3yN7roedSEUHsAL4UwBPsxdKVyJUglwPA/yQ3Hhk61wz8JOJlfB/hrHJ0t+jjy7oumUoSEcTHIlt0Du224G2lEmvnSpA3ddlBhoZ/DoCjADCRdojsBoBtuKZytnELAL8OaaBL0apQk3HwfgWAn9L8nZ3kSJBDALzfgRSTIfCTiWuNqfK6kSuZU64OawYZtw4x4qdvtpIbQbYGcKojr9TvAhbdY+C7SDJlFhFB3Mi/GMCTxoyz9N9zIwgTPRzrAOUeAD4SGbTLA/iCI1wldBYRQYYNxa8ERjJkL7kR5GMA+HR0n3AxznMKl/DNxOsA4J1kLvAZd8UZaeyUnJkvOJP0SWhYtQhySTS5K8l132+yZ0bXwZwIws+rPwG4bA94/LRiykhXoJprYf92AA8YMQoPI4fuFzCVqDW4UQS5OOCfBHDXUoix6mdOBGFULv/b98nY/vjvAWw/Av4fATAsfkgYasJ2+uS5AJ5hNK4IsgWwFwB4ihG/LNRzIohr/XE7RypPBhs+2BPNdwG434AuZ4+hWYKn+Xt5trFSE0GA/wDgeiP2utFoinD1nAgy5OjczuXnV588DACz51nEteg+G0DfASK/mXe0NKJzkAsup90BAGf3YiUnggz9x+WtQIad9An/s/OQySIMR2HISZ8wXOVuA3/j2ujvhoZankF4gMvnwouXnAjCBTivym4K3xe5zQDS3BUZIs+Qcf4M4AoDf2TS7YcO/O36AH5osHirBHkegKcbcMpaNSeC/G8AqVMA8NmsPvkLAMZtWcQ1I9G4Tx2ojGsQS2RxawT5KwDGr3GrvhrJiSBDM4iLIENrBpeBPu74jHqVI1sG1yCW/fuWCMLHkhgywm36qiQnggw5lIsg7wHAKFCLuA4cebB4r57KuPboO59xtdsKQWiD+1gMUJJuTgRxbdfyNmHff6ex0JQ+W/DaLhfjfcLHVpipb1O49uAaxCItEOTZI6FBFryy1M2JIC5n56V9Xt7vE8tO1kcdbwfuDoBPx/UJZxbrTFUzQfjP6v4AeDpeteREEP6HHnpg8Rvd3YwhYwz951/Xp/Pf0GFNxnm9bODvD+we5rQ4Q60E4eW0fQFwN7B6yYkgBNs1GzwCwOsdFnlkd11z1w0dLv657ejKxsedMLbdRyDulHGBzt8WqZEgzKDOTOrNSG4EoSM/ZwD9sVlkVYxnJvwPx3UDXxniD7cgXcKtXW7x9gmv9fJzwiq1EYSxaIxJa0pyIwgTKnAKZ5K4Pknxei7XFtyJGRLXot7lLLUQhFvbnDWYrrU5yY0gNADXAa57HzEvTY2Rw7WoH3OWGgjCi2S8n3P+2GBr/XuOBNmlm0VcoekxXjAdIwdtHjp7sGzpBEkxWxfHoxwJQhB9zjf4xC8TvHEHyyo+UcAhW7vr/SiZILwrzjvjvsJoa96n4Vrt6t1zEwxYpB2LllwJQlA/AODgEXQ59fNknDcGh7aI16s4qMuLxawoLuE6iDpTPi1KJAjfUuHszL77CncNXwuA1503JfQ+v2/byfVyJggHz7fn+MnlIzznoGF/DIDJqPmzSj3Ke+p3H4gW7qv7qhPyYa3qK40gXITzH4glpJ9BpCQH84z1Scg9Gh9bz6aTO0EIBA+ktp0NkQvvvvtmanR1qySChDxpxp2tt3nYhTc1mfiiSCmBIAR2DmfjjMPPhJA1TZ/x5+hzDKdzhfEM1f80w5kIZxkGnBYppRCE4IZE7voa5dMAGE7C7CmxJHeC/AjAEV1OMN8x01/4ScWoBl8RQXqQSrU4Y/4q/sR6/pen8wxfcYWw+DrCpl7OBGE0M5Mp/MswuJ0BfMjwHuSqahFkRoKsmiJJeDV2T4OB11W5xnhzImKs2smVIGMplPogZbI35kQOERFkAYKsmuSCmifrTBDAbIouYXZFbgfzc4o34FJLbgT5R/fsw1AGySE8eLZB3EJFBFmQIOtN8110Jn1Y/fBvvH+++jk31MKB5XIiyHcBHAngS8ax8IyJ76lMEREkE4JMMWKKsrkQhE9JMJnCf42D5Gdo6CfselMiiAjS63o5EITPZg9laRniC0NFYj6eKYKIINkRhIerPN9gvJpFGNrDEJ+YIoKIIFkRhPmFH23M4cUBMPbsszGZ0dUlgogg2RCE14oPC3RyBily6zu2iCAiSBYEYWg5D2hDxeeKQUjdIogIsihBmD2d6w3enZ8iIkgPeiXFYk0x/hJl59jF4rkGycGQmakigsxIEOa4nXrANNXgS5f3ydU1pY/MRHn4lAo2yoogMxKE4Rz7RTReaVXtAIC386z5fH3HyefM+KxZTBFBZiQIm+IePHdGWhQGBPKOdmz5ZfdJFfusgv0UQWYmCJtjGDkDA/kcVwvCgEm+l2h99coHm5M7csS60LXZpgiyAEF8DC+dcQSO74INxzXDNUonCKMAmHtgmxEITJlWUu1ihZtJJTcReLwjqXZMtEomyFiywXWcTD5vUgawjzElTEwDtlbXmd0n1VxPmpVKED7KylzMvmLyeZOyCOJrg8l6n+jIwRRGc0mJBOE1YO4WWsTk8yZlEcRih2Bd1xNxwZV6FCyRICFfNCafNymLIB5uFq7y727WeE14FZNKiiA98FkJwir43sZ1J5lChTcRYNpUhoykCDf3RVsEiUQQJjZ+oS/q0htFgKl0SI6Yt/hGG+1RSEUQvhqc4mCTQ2A6WT5RYRHTpGBSXusFM2Mw9Y4kHAFG4TKe6pjwKqKWTEWQlBEVxM4acmPyeZPyhjl8D2aiWrGSyvgwzanGxG2ph35swucKYuU73sTgbAA7GYEx+bxJ2dgRqZeFQEqCEAnG5Z0GgClPpwgz9jORHZ8Fv1pARSafNykHdEZFykEgNUFyQcLk8yblXEaofiRBQATpgVUESeJrRVaaapGeGxgmnzcp5zZS9ScqAiKIZpCoDlVbZfrEEkFq8+mo4xFBRJCoDlVbZSKICFKbT0cdjwgigkR1qNoq0yJdBKnNp6OORwQRQaI6VG2V6RNLBKnNp6OORwQRQaI6VG2ViSAiSG0+HXU8IogIEtWhaqssJAFCiRiYwqtMyiWioT57IyCCaAbxdpYWFUUQEaRFv/ce844AzvHWLlfR9NVkUi4XE/XcE4E5XsXy7EoyNZPPm5STdVkV54QA73rzGelaxeTzJuVaEdO4LoEAkyHwKYEcZVcAzKhzQGDnTD5vUg7skIoJgRQI8D34EwMqNvm8STmgMyoiBFIicByAo4wNmHzepGzsiNSFQGoEmN2TWT4tYvJ5k7KlF9IVAjMgEHJ2Y/J5k/IMA1YTQsCCgAhiQUu6zSEggjRncg3YgsDuAE63FABg+moyKRs7InUhkBqBywDgu/G7GBoy+bxJ2dAJqQqBuRDYH8AJALb3bNDk8yZlzw5ITQjMjcBuAI4GcCiAHUYaN/m8SXnuUas9IbA0AiLI0hZQ+1kjIIJkbR51bmkERJClLaD2s0ZABMnaPOrc0giIIEtbQO1njYAIkrV51LmlERBBlraA2s8aAREka/Ooc0sjIIIsbQG1nzUCIkjW5lHnlkZABFnaAmo/awT+D1BH6ud2nbdZAAAAAElFTkSuQmCC;flipV=1;flipH=0;direction=north;" vertex="1" parent="1">
          <mxGeometry x="416" y="276" width="20" height="20" as="geometry" />
        </mxCell>
        <mxCell id="VO_4vQ80IrR_DuiOpRqN-40" value="" style="group" vertex="1" connectable="0" parent="1">
          <mxGeometry x="435" y="270" width="10" height="70" as="geometry" />
        </mxCell>
        <mxCell id="VO_4vQ80IrR_DuiOpRqN-41" value="" style="line;strokeWidth=9;direction=south;html=1;perimeter=backbonePerimeter;points=[];outlineConnect=0;fillColor=none;" vertex="1" parent="VO_4vQ80IrR_DuiOpRqN-40">
          <mxGeometry y="14" width="10" height="56" as="geometry" />
        </mxCell>
        <mxCell id="VO_4vQ80IrR_DuiOpRqN-42" value="" style="line;strokeWidth=2;direction=south;html=1;fillColor=none;" vertex="1" parent="VO_4vQ80IrR_DuiOpRqN-40">
          <mxGeometry width="10" height="21.466666666666665" as="geometry" />
        </mxCell>
        <mxCell id="VO_4vQ80IrR_DuiOpRqN-43" value="" style="line;strokeWidth=2;html=1;fillColor=none;" vertex="1" parent="1">
          <mxGeometry x="420" y="290" width="40" height="10" as="geometry" />
        </mxCell>
        <mxCell id="VO_4vQ80IrR_DuiOpRqN-44" value="" style="shape=image;verticalLabelPosition=bottom;labelBackgroundColor=default;verticalAlign=top;aspect=fixed;imageAspect=0;image=data:image/png,iVBORw0KGgoAAAANSUhEUgAAAMgAAADICAYAAACtWK6eAAAAAXNSR0IArs4c6QAAEKxJREFUeF7tXXnwf9UYfpoxIhpGxUSyFJEtWyRLlqlEUSZbGCLUkHVknaxjG7vIzpR9JztpRBjL2EKIiKxDI9m3eep++n36dO+55z33nHvP8rwz3/n+8X3P9rzv8z33nPOe92wFiRAQAoMIbCVshIAQGEZABJF3CAEHAiKI3EMIiCDyASEQhoBmkDDcVKoRBESQRgytYYYhIIKE4aZSjSAggjRiaA0zDAERJAw3lWoEARGkEUNrmGEIiCBhuKlUIwiIII0YWsMMQ0AECcNNpRpBQARpxNAaZhgCIkgYbirVCAIiSCOG1jDDEBBBwnBTqUYQEEEaMbSGGYaACBKGm0o1goAI0oihNcwwBESQMNxUqhEERJBGDK1hhiEggoThplKNICCCNGJoDTMMAREkDLcWSu0LYDcA2xU+2PMAnAHgpJBxiCAhqNVb5kYADu5+9qhsmGcBuJZ1TCKIFbH69K+4RooD6xvexUb0IgDHWMYogljQqkv3LmvE2LGuoQ2O5nwAOwD4m+94RRBfpOrQ45pi9Qm1Zx1DMo/ijgBO8S0lgvgiVa7eNmukOARA6zYXQcr15ag9v31HDJJi56g1l12ZCFK2/Sb1nrs0/IQiKfaeVFO9hUWQem3bO7JLrZGC5Ni6sfFbhyuCWBErVH+vtbXFroWOYYluiyBLoD5TmzutkYKGltgREEHsmGVf4p5rxNg2+97m3UERJG/7ePfu5muk2N27lBTHEBBBxhDK+O9XXiPFfhn3s+SuiSAFWu+ANWKUHj2bO/wiSO4W6vpXc+RsziYQQTK2TkuRs7maQQTJ0DItRs5maIYLuiSCZGIZRc5mYoiNboggC9pFkbMLgu/ZtAjiCVRMNUXOxkQzbV0iSFp8L6pdkbMzAR25GREkMqDr1SlyNiG4M1UtgiQAWpGzCUBdqEoRJBLwipyNBGRm1YggEw2iyNmJAGZeXAQJMJAiZwNAK7SICOJpOEXOegJVmZoIMmJQRc5W5vHG4YggPYApctboRRWriyCdcRU5W7GXTxha8wRR5OwE72mgaJMEUeRsA54daYjNEESRs5E8prFqqieIImcb8+jIw62SIIqcjewlDVdXDUEUOduwFyccevEEUeRsQu9Q1WXeSVfkrDx3LgSKmkEUOTuXW6idFQLZE0SRs3LWJRHIkiCKnF3SJdT2OgJZEUSRs3LO3BBYnCCKnM3NJdSfxWcQRc7KCUtBYNYZRJGzpbiF+jnrLtatALwSwJ7CXQgUhkDyGYRnF28BwM8qiRAoDYHkBPkwgINKQ0X9FQIdAkkJwvOM3wpqIVAwAkkJsg+AzxcMjrouBEQQ+YAQcCAggsg9hIAIIh8QAmEIaAYJw02lGkGA17fP8h3rVr6KnZ51kX4CgC8D+IGxnVLVrwfgcAC3LHUAlff7qwBubRljSoJ8C8BNLZ2pRHdbACfqrChLa94AwPctPUtFkNMB3BbAuZbOVKS7N4AvVjSeGoZiJgcHnYogbwRwRA2oThjDmQCuPaG8isZB4HsAeAUjSFIR5FkAnhnUo3oK8UCVazbJcgi8AcDDpzQvgkxBz11WBEmHrU/NDwHwVh9Fl44IMhXB4fIiSDpsx2rmbuIZY0o+fxdBfFAK0xFBwnCbUurbAPaYUsFmWREkJpoXr0sESYdtX83HAzgydpMiSGxEt9QngqTDdrPmBwHgoXR0EUGiQ3pRhSJIOmxXNf8TAM83fpKqKREkFbIX3pvRNm86fL8JgFk6k4oIkg5eESQdtscBeFS66rfUXAtBtusCBK8J4BoA+JtJJRi1+fPuN3c45gyaFEHSePBhAN6RpupL1loyQe7dxXsx5ss3KJLT8vsAfAbA1xODLILEBfg8ADcB8LO41bprK5Eg/K5/MoD9JgL1QQCvBnDyxHqGiosg8YD92lI52EoiCJ9kez6AJ8bD/YKamOPr5QC+E7leESQOoExQ+Jg4VdlrKYUgV+riag60D9GrBFMZPQ7AO720/ZREED+cXFr3BfDu6dWE11ACQXhFkusFkiS1PBbAKyI1IoKEA/mHbgv3F+FVxCmZO0GYA/grxqHy8IifS5cGcJXux1IFP+FeYikwoCuChIF4GgBeOMtCciYIZ46feqL0OQAnAfjUwFbunQHcCcD+AG7mUSd3yN7roedSEUHsAL4UwBPsxdKVyJUglwPA/yQ3Hhk61wz8JOJlfB/hrHJ0t+jjy7oumUoSEcTHIlt0Du224G2lEmvnSpA3ddlBhoZ/DoCjADCRdojsBoBtuKZytnELAL8OaaBL0apQk3HwfgWAn9L8nZ3kSJBDALzfgRSTIfCTiWuNqfK6kSuZU64OawYZtw4x4qdvtpIbQbYGcKojr9TvAhbdY+C7SDJlFhFB3Mi/GMCTxoyz9N9zIwgTPRzrAOUeAD4SGbTLA/iCI1wldBYRQYYNxa8ERjJkL7kR5GMA+HR0n3AxznMKl/DNxOsA4J1kLvAZd8UZaeyUnJkvOJP0SWhYtQhySTS5K8l132+yZ0bXwZwIws+rPwG4bA94/LRiykhXoJprYf92AA8YMQoPI4fuFzCVqDW4UQS5OOCfBHDXUoix6mdOBGFULv/b98nY/vjvAWw/Av4fATAsfkgYasJ2+uS5AJ5hNK4IsgWwFwB4ihG/LNRzIohr/XE7RypPBhs+2BPNdwG434AuZ4+hWYKn+Xt5trFSE0GA/wDgeiP2utFoinD1nAgy5OjczuXnV588DACz51nEteg+G0DfASK/mXe0NKJzkAsup90BAGf3YiUnggz9x+WtQIad9An/s/OQySIMR2HISZ8wXOVuA3/j2ujvhoZankF4gMvnwouXnAjCBTivym4K3xe5zQDS3BUZIs+Qcf4M4AoDf2TS7YcO/O36AH5osHirBHkegKcbcMpaNSeC/G8AqVMA8NmsPvkLAMZtWcQ1I9G4Tx2ojGsQS2RxawT5KwDGr3GrvhrJiSBDM4iLIENrBpeBPu74jHqVI1sG1yCW/fuWCMLHkhgywm36qiQnggw5lIsg7wHAKFCLuA4cebB4r57KuPboO59xtdsKQWiD+1gMUJJuTgRxbdfyNmHff6ex0JQ+W/DaLhfjfcLHVpipb1O49uAaxCItEOTZI6FBFryy1M2JIC5n56V9Xt7vE8tO1kcdbwfuDoBPx/UJZxbrTFUzQfjP6v4AeDpeteREEP6HHnpg8Rvd3YwhYwz951/Xp/Pf0GFNxnm9bODvD+we5rQ4Q60E4eW0fQFwN7B6yYkgBNs1GzwCwOsdFnlkd11z1w0dLv657ejKxsedMLbdRyDulHGBzt8WqZEgzKDOTOrNSG4EoSM/ZwD9sVlkVYxnJvwPx3UDXxniD7cgXcKtXW7x9gmv9fJzwiq1EYSxaIxJa0pyIwgTKnAKZ5K4Pknxei7XFtyJGRLXot7lLLUQhFvbnDWYrrU5yY0gNADXAa57HzEvTY2Rw7WoH3OWGgjCi2S8n3P+2GBr/XuOBNmlm0VcoekxXjAdIwdtHjp7sGzpBEkxWxfHoxwJQhB9zjf4xC8TvHEHyyo+UcAhW7vr/SiZILwrzjvjvsJoa96n4Vrt6t1zEwxYpB2LllwJQlA/AODgEXQ59fNknDcGh7aI16s4qMuLxawoLuE6iDpTPi1KJAjfUuHszL77CncNXwuA1503JfQ+v2/byfVyJggHz7fn+MnlIzznoGF/DIDJqPmzSj3Ke+p3H4gW7qv7qhPyYa3qK40gXITzH4glpJ9BpCQH84z1Scg9Gh9bz6aTO0EIBA+ktp0NkQvvvvtmanR1qySChDxpxp2tt3nYhTc1mfiiSCmBIAR2DmfjjMPPhJA1TZ/x5+hzDKdzhfEM1f80w5kIZxkGnBYppRCE4IZE7voa5dMAGE7C7CmxJHeC/AjAEV1OMN8x01/4ScWoBl8RQXqQSrU4Y/4q/sR6/pen8wxfcYWw+DrCpl7OBGE0M5Mp/MswuJ0BfMjwHuSqahFkRoKsmiJJeDV2T4OB11W5xnhzImKs2smVIGMplPogZbI35kQOERFkAYKsmuSCmifrTBDAbIouYXZFbgfzc4o34FJLbgT5R/fsw1AGySE8eLZB3EJFBFmQIOtN8110Jn1Y/fBvvH+++jk31MKB5XIiyHcBHAngS8ax8IyJ76lMEREkE4JMMWKKsrkQhE9JMJnCf42D5Gdo6CfselMiiAjS63o5EITPZg9laRniC0NFYj6eKYKIINkRhIerPN9gvJpFGNrDEJ+YIoKIIFkRhPmFH23M4cUBMPbsszGZ0dUlgogg2RCE14oPC3RyBily6zu2iCAiSBYEYWg5D2hDxeeKQUjdIogIsihBmD2d6w3enZ8iIkgPeiXFYk0x/hJl59jF4rkGycGQmakigsxIEOa4nXrANNXgS5f3ydU1pY/MRHn4lAo2yoogMxKE4Rz7RTReaVXtAIC386z5fH3HyefM+KxZTBFBZiQIm+IePHdGWhQGBPKOdmz5ZfdJFfusgv0UQWYmCJtjGDkDA/kcVwvCgEm+l2h99coHm5M7csS60LXZpgiyAEF8DC+dcQSO74INxzXDNUonCKMAmHtgmxEITJlWUu1ihZtJJTcReLwjqXZMtEomyFiywXWcTD5vUgawjzElTEwDtlbXmd0n1VxPmpVKED7KylzMvmLyeZOyCOJrg8l6n+jIwRRGc0mJBOE1YO4WWsTk8yZlEcRih2Bd1xNxwZV6FCyRICFfNCafNymLIB5uFq7y727WeE14FZNKiiA98FkJwir43sZ1J5lChTcRYNpUhoykCDf3RVsEiUQQJjZ+oS/q0htFgKl0SI6Yt/hGG+1RSEUQvhqc4mCTQ2A6WT5RYRHTpGBSXusFM2Mw9Y4kHAFG4TKe6pjwKqKWTEWQlBEVxM4acmPyeZPyhjl8D2aiWrGSyvgwzanGxG2ph35swucKYuU73sTgbAA7GYEx+bxJ2dgRqZeFQEqCEAnG5Z0GgClPpwgz9jORHZ8Fv1pARSafNykHdEZFykEgNUFyQcLk8yblXEaofiRBQATpgVUESeJrRVaaapGeGxgmnzcp5zZS9ScqAiKIZpCoDlVbZfrEEkFq8+mo4xFBRJCoDlVbZSKICFKbT0cdjwgigkR1qNoq0yJdBKnNp6OORwQRQaI6VG2V6RNLBKnNp6OORwQRQaI6VG2ViSAiSG0+HXU8IogIEtWhaqssJAFCiRiYwqtMyiWioT57IyCCaAbxdpYWFUUQEaRFv/ce844AzvHWLlfR9NVkUi4XE/XcE4E5XsXy7EoyNZPPm5STdVkV54QA73rzGelaxeTzJuVaEdO4LoEAkyHwKYEcZVcAzKhzQGDnTD5vUg7skIoJgRQI8D34EwMqNvm8STmgMyoiBFIicByAo4wNmHzepGzsiNSFQGoEmN2TWT4tYvJ5k7KlF9IVAjMgEHJ2Y/J5k/IMA1YTQsCCgAhiQUu6zSEggjRncg3YgsDuAE63FABg+moyKRs7InUhkBqBywDgu/G7GBoy+bxJ2dAJqQqBuRDYH8AJALb3bNDk8yZlzw5ITQjMjcBuAI4GcCiAHUYaN/m8SXnuUas9IbA0AiLI0hZQ+1kjIIJkbR51bmkERJClLaD2s0ZABMnaPOrc0giIIEtbQO1njYAIkrV51LmlERBBlraA2s8aAREka/Ooc0sjIIIsbQG1nzUCIkjW5lHnlkZABFnaAmo/awT+D1BH6ud2nbdZAAAAAElFTkSuQmCC;flipV=1;flipH=0;direction=north;" vertex="1" parent="1">
          <mxGeometry x="450" y="177" width="20" height="20" as="geometry" />
        </mxCell>
        <mxCell id="VO_4vQ80IrR_DuiOpRqN-45" value="" style="group" vertex="1" connectable="0" parent="1">
          <mxGeometry x="469" y="170" width="10" height="70" as="geometry" />
        </mxCell>
        <mxCell id="VO_4vQ80IrR_DuiOpRqN-46" value="" style="line;strokeWidth=9;direction=south;html=1;perimeter=backbonePerimeter;points=[];outlineConnect=0;fillColor=none;" vertex="1" parent="VO_4vQ80IrR_DuiOpRqN-45">
          <mxGeometry y="14" width="10" height="56" as="geometry" />
        </mxCell>
        <mxCell id="VO_4vQ80IrR_DuiOpRqN-47" value="" style="line;strokeWidth=2;direction=south;html=1;fillColor=none;" vertex="1" parent="VO_4vQ80IrR_DuiOpRqN-45">
          <mxGeometry width="10" height="21.466666666666665" as="geometry" />
        </mxCell>
        <mxCell id="VO_4vQ80IrR_DuiOpRqN-48" value="" style="line;strokeWidth=2;html=1;fillColor=none;" vertex="1" parent="1">
          <mxGeometry x="454" y="190" width="40" height="10" as="geometry" />
        </mxCell>
        <mxCell id="VO_4vQ80IrR_DuiOpRqN-49" value="" style="group;rotation=90;" vertex="1" connectable="0" parent="1">
          <mxGeometry x="689.9999697673951" y="614.0032706262941" width="102.86006046520981" height="23.62672937370587" as="geometry" />
        </mxCell>
        <mxCell id="VO_4vQ80IrR_DuiOpRqN-50" value="" style="fontColor=#0066CC;verticalAlign=top;verticalLabelPosition=bottom;labelPosition=center;align=center;html=1;outlineConnect=0;fillColor=#000000;strokeColor=#6881B3;gradientColor=none;gradientDirection=north;strokeWidth=2;shape=mxgraph.networks.security_camera;rotation=75;" vertex="1" parent="VO_4vQ80IrR_DuiOpRqN-49">
          <mxGeometry x="37" y="39" width="30" height="15" as="geometry" />
        </mxCell>
        <mxCell id="VO_4vQ80IrR_DuiOpRqN-51" value="" style="line;strokeWidth=2;html=1;fillColor=none;rotation=90;" vertex="1" parent="VO_4vQ80IrR_DuiOpRqN-49">
          <mxGeometry x="15" y="11" width="60" height="10" as="geometry" />
        </mxCell>
        <mxCell id="VO_4vQ80IrR_DuiOpRqN-52" value="" style="fontColor=#0066CC;verticalAlign=top;verticalLabelPosition=bottom;labelPosition=center;align=center;html=1;outlineConnect=0;fillColor=#000000;strokeColor=#6881B3;gradientColor=none;gradientDirection=north;strokeWidth=2;shape=mxgraph.networks.security_camera;flipV=0;flipH=1;rotation=105;" vertex="1" parent="VO_4vQ80IrR_DuiOpRqN-49">
          <mxGeometry x="37" y="-31" width="30" height="15" as="geometry" />
        </mxCell>
        <mxCell id="VO_4vQ80IrR_DuiOpRqN-61" value="" style="group;rotation=90;" vertex="1" connectable="0" parent="1">
          <mxGeometry x="730" y="152" width="53" height="82.5" as="geometry" />
        </mxCell>
        <mxCell id="VO_4vQ80IrR_DuiOpRqN-59" value="" style="line;strokeWidth=2;html=1;fillColor=none;rotation=90;" vertex="1" parent="VO_4vQ80IrR_DuiOpRqN-61">
          <mxGeometry x="13" y="33" width="48" height="10" as="geometry" />
        </mxCell>
        <mxCell id="VO_4vQ80IrR_DuiOpRqN-101" value="" style="line;strokeWidth=10;direction=south;html=1;perimeter=backbonePerimeter;points=[];outlineConnect=0;fontColor=#FFFFFF;fillColor=none;strokeColor=#CCCCCC;rotation=90;" vertex="1" parent="VO_4vQ80IrR_DuiOpRqN-61">
          <mxGeometry x="4" y="-12.5" width="10" height="95" as="geometry" />
        </mxCell>
        <mxCell id="VO_4vQ80IrR_DuiOpRqN-63" value="" style="group;rotation=90;" vertex="1" connectable="0" parent="1">
          <mxGeometry x="590" y="598.63" width="53" height="70" as="geometry" />
        </mxCell>
        <mxCell id="VO_4vQ80IrR_DuiOpRqN-64" value="" style="group;rotation=90;" vertex="1" connectable="0" parent="VO_4vQ80IrR_DuiOpRqN-63">
          <mxGeometry x="22" y="3" width="10" height="70" as="geometry" />
        </mxCell>
        <mxCell id="VO_4vQ80IrR_DuiOpRqN-65" value="" style="line;strokeWidth=9;direction=south;html=1;perimeter=backbonePerimeter;points=[];outlineConnect=0;fillColor=none;rotation=90;" vertex="1" parent="VO_4vQ80IrR_DuiOpRqN-64">
          <mxGeometry x="-7" y="7" width="10" height="56" as="geometry" />
        </mxCell>
        <mxCell id="VO_4vQ80IrR_DuiOpRqN-66" value="" style="line;strokeWidth=2;direction=south;html=1;fillColor=none;rotation=90;" vertex="1" parent="VO_4vQ80IrR_DuiOpRqN-64">
          <mxGeometry x="24" y="24" width="10" height="21.466666666666665" as="geometry" />
        </mxCell>
        <mxCell id="VO_4vQ80IrR_DuiOpRqN-67" value="" style="line;strokeWidth=2;html=1;fillColor=none;rotation=90;" vertex="1" parent="VO_4vQ80IrR_DuiOpRqN-63">
          <mxGeometry x="13" y="33" width="48" height="10" as="geometry" />
        </mxCell>
        <mxCell id="VO_4vQ80IrR_DuiOpRqN-68" value="" style="shape=image;verticalLabelPosition=bottom;labelBackgroundColor=default;verticalAlign=top;aspect=fixed;imageAspect=0;image=data:image/png,iVBORw0KGgoAAAANSUhEUgAAAMgAAADICAYAAACtWK6eAAAAAXNSR0IArs4c6QAAEKxJREFUeF7tXXnwf9UYfpoxIhpGxUSyFJEtWyRLlqlEUSZbGCLUkHVknaxjG7vIzpR9JztpRBjL2EKIiKxDI9m3eep++n36dO+55z33nHvP8rwz3/n+8X3P9rzv8z33nPOe92wFiRAQAoMIbCVshIAQGEZABJF3CAEHAiKI3EMIiCDyASEQhoBmkDDcVKoRBESQRgytYYYhIIKE4aZSjSAggjRiaA0zDAERJAw3lWoEARGkEUNrmGEIiCBhuKlUIwiIII0YWsMMQ0AECcNNpRpBQARpxNAaZhgCIkgYbirVCAIiSCOG1jDDEBBBwnBTqUYQEEEaMbSGGYaACBKGm0o1goAI0oihNcwwBESQMNxUqhEERJBGDK1hhiEggoThplKNICCCNGJoDTMMAREkDLcWSu0LYDcA2xU+2PMAnAHgpJBxiCAhqNVb5kYADu5+9qhsmGcBuJZ1TCKIFbH69K+4RooD6xvexUb0IgDHWMYogljQqkv3LmvE2LGuoQ2O5nwAOwD4m+94RRBfpOrQ45pi9Qm1Zx1DMo/ijgBO8S0lgvgiVa7eNmukOARA6zYXQcr15ag9v31HDJJi56g1l12ZCFK2/Sb1nrs0/IQiKfaeVFO9hUWQem3bO7JLrZGC5Ni6sfFbhyuCWBErVH+vtbXFroWOYYluiyBLoD5TmzutkYKGltgREEHsmGVf4p5rxNg2+97m3UERJG/7ePfu5muk2N27lBTHEBBBxhDK+O9XXiPFfhn3s+SuiSAFWu+ANWKUHj2bO/wiSO4W6vpXc+RsziYQQTK2TkuRs7maQQTJ0DItRs5maIYLuiSCZGIZRc5mYoiNboggC9pFkbMLgu/ZtAjiCVRMNUXOxkQzbV0iSFp8L6pdkbMzAR25GREkMqDr1SlyNiG4M1UtgiQAWpGzCUBdqEoRJBLwipyNBGRm1YggEw2iyNmJAGZeXAQJMJAiZwNAK7SICOJpOEXOegJVmZoIMmJQRc5W5vHG4YggPYApctboRRWriyCdcRU5W7GXTxha8wRR5OwE72mgaJMEUeRsA54daYjNEESRs5E8prFqqieIImcb8+jIw62SIIqcjewlDVdXDUEUOduwFyccevEEUeRsQu9Q1WXeSVfkrDx3LgSKmkEUOTuXW6idFQLZE0SRs3LWJRHIkiCKnF3SJdT2OgJZEUSRs3LO3BBYnCCKnM3NJdSfxWcQRc7KCUtBYNYZRJGzpbiF+jnrLtatALwSwJ7CXQgUhkDyGYRnF28BwM8qiRAoDYHkBPkwgINKQ0X9FQIdAkkJwvOM3wpqIVAwAkkJsg+AzxcMjrouBEQQ+YAQcCAggsg9hIAIIh8QAmEIaAYJw02lGkGA17fP8h3rVr6KnZ51kX4CgC8D+IGxnVLVrwfgcAC3LHUAlff7qwBubRljSoJ8C8BNLZ2pRHdbACfqrChLa94AwPctPUtFkNMB3BbAuZbOVKS7N4AvVjSeGoZiJgcHnYogbwRwRA2oThjDmQCuPaG8isZB4HsAeAUjSFIR5FkAnhnUo3oK8UCVazbJcgi8AcDDpzQvgkxBz11WBEmHrU/NDwHwVh9Fl44IMhXB4fIiSDpsx2rmbuIZY0o+fxdBfFAK0xFBwnCbUurbAPaYUsFmWREkJpoXr0sESYdtX83HAzgydpMiSGxEt9QngqTDdrPmBwHgoXR0EUGiQ3pRhSJIOmxXNf8TAM83fpKqKREkFbIX3pvRNm86fL8JgFk6k4oIkg5eESQdtscBeFS66rfUXAtBtusCBK8J4BoA+JtJJRi1+fPuN3c45gyaFEHSePBhAN6RpupL1loyQe7dxXsx5ss3KJLT8vsAfAbA1xODLILEBfg8ADcB8LO41bprK5Eg/K5/MoD9JgL1QQCvBnDyxHqGiosg8YD92lI52EoiCJ9kez6AJ8bD/YKamOPr5QC+E7leESQOoExQ+Jg4VdlrKYUgV+riag60D9GrBFMZPQ7AO720/ZREED+cXFr3BfDu6dWE11ACQXhFkusFkiS1PBbAKyI1IoKEA/mHbgv3F+FVxCmZO0GYA/grxqHy8IifS5cGcJXux1IFP+FeYikwoCuChIF4GgBeOMtCciYIZ46feqL0OQAnAfjUwFbunQHcCcD+AG7mUSd3yN7roedSEUHsAL4UwBPsxdKVyJUglwPA/yQ3Hhk61wz8JOJlfB/hrHJ0t+jjy7oumUoSEcTHIlt0Du224G2lEmvnSpA3ddlBhoZ/DoCjADCRdojsBoBtuKZytnELAL8OaaBL0apQk3HwfgWAn9L8nZ3kSJBDALzfgRSTIfCTiWuNqfK6kSuZU64OawYZtw4x4qdvtpIbQbYGcKojr9TvAhbdY+C7SDJlFhFB3Mi/GMCTxoyz9N9zIwgTPRzrAOUeAD4SGbTLA/iCI1wldBYRQYYNxa8ERjJkL7kR5GMA+HR0n3AxznMKl/DNxOsA4J1kLvAZd8UZaeyUnJkvOJP0SWhYtQhySTS5K8l132+yZ0bXwZwIws+rPwG4bA94/LRiykhXoJprYf92AA8YMQoPI4fuFzCVqDW4UQS5OOCfBHDXUoix6mdOBGFULv/b98nY/vjvAWw/Av4fATAsfkgYasJ2+uS5AJ5hNK4IsgWwFwB4ihG/LNRzIohr/XE7RypPBhs+2BPNdwG434AuZ4+hWYKn+Xt5trFSE0GA/wDgeiP2utFoinD1nAgy5OjczuXnV588DACz51nEteg+G0DfASK/mXe0NKJzkAsup90BAGf3YiUnggz9x+WtQIad9An/s/OQySIMR2HISZ8wXOVuA3/j2ujvhoZankF4gMvnwouXnAjCBTivym4K3xe5zQDS3BUZIs+Qcf4M4AoDf2TS7YcO/O36AH5osHirBHkegKcbcMpaNSeC/G8AqVMA8NmsPvkLAMZtWcQ1I9G4Tx2ojGsQS2RxawT5KwDGr3GrvhrJiSBDM4iLIENrBpeBPu74jHqVI1sG1yCW/fuWCMLHkhgywm36qiQnggw5lIsg7wHAKFCLuA4cebB4r57KuPboO59xtdsKQWiD+1gMUJJuTgRxbdfyNmHff6ex0JQ+W/DaLhfjfcLHVpipb1O49uAaxCItEOTZI6FBFryy1M2JIC5n56V9Xt7vE8tO1kcdbwfuDoBPx/UJZxbrTFUzQfjP6v4AeDpeteREEP6HHnpg8Rvd3YwhYwz951/Xp/Pf0GFNxnm9bODvD+we5rQ4Q60E4eW0fQFwN7B6yYkgBNs1GzwCwOsdFnlkd11z1w0dLv657ejKxsedMLbdRyDulHGBzt8WqZEgzKDOTOrNSG4EoSM/ZwD9sVlkVYxnJvwPx3UDXxniD7cgXcKtXW7x9gmv9fJzwiq1EYSxaIxJa0pyIwgTKnAKZ5K4Pknxei7XFtyJGRLXot7lLLUQhFvbnDWYrrU5yY0gNADXAa57HzEvTY2Rw7WoH3OWGgjCi2S8n3P+2GBr/XuOBNmlm0VcoekxXjAdIwdtHjp7sGzpBEkxWxfHoxwJQhB9zjf4xC8TvHEHyyo+UcAhW7vr/SiZILwrzjvjvsJoa96n4Vrt6t1zEwxYpB2LllwJQlA/AODgEXQ59fNknDcGh7aI16s4qMuLxawoLuE6iDpTPi1KJAjfUuHszL77CncNXwuA1503JfQ+v2/byfVyJggHz7fn+MnlIzznoGF/DIDJqPmzSj3Ke+p3H4gW7qv7qhPyYa3qK40gXITzH4glpJ9BpCQH84z1Scg9Gh9bz6aTO0EIBA+ktp0NkQvvvvtmanR1qySChDxpxp2tt3nYhTc1mfiiSCmBIAR2DmfjjMPPhJA1TZ/x5+hzDKdzhfEM1f80w5kIZxkGnBYppRCE4IZE7voa5dMAGE7C7CmxJHeC/AjAEV1OMN8x01/4ScWoBl8RQXqQSrU4Y/4q/sR6/pen8wxfcYWw+DrCpl7OBGE0M5Mp/MswuJ0BfMjwHuSqahFkRoKsmiJJeDV2T4OB11W5xnhzImKs2smVIGMplPogZbI35kQOERFkAYKsmuSCmifrTBDAbIouYXZFbgfzc4o34FJLbgT5R/fsw1AGySE8eLZB3EJFBFmQIOtN8110Jn1Y/fBvvH+++jk31MKB5XIiyHcBHAngS8ax8IyJ76lMEREkE4JMMWKKsrkQhE9JMJnCf42D5Gdo6CfselMiiAjS63o5EITPZg9laRniC0NFYj6eKYKIINkRhIerPN9gvJpFGNrDEJ+YIoKIIFkRhPmFH23M4cUBMPbsszGZ0dUlgogg2RCE14oPC3RyBily6zu2iCAiSBYEYWg5D2hDxeeKQUjdIogIsihBmD2d6w3enZ8iIkgPeiXFYk0x/hJl59jF4rkGycGQmakigsxIEOa4nXrANNXgS5f3ydU1pY/MRHn4lAo2yoogMxKE4Rz7RTReaVXtAIC386z5fH3HyefM+KxZTBFBZiQIm+IePHdGWhQGBPKOdmz5ZfdJFfusgv0UQWYmCJtjGDkDA/kcVwvCgEm+l2h99coHm5M7csS60LXZpgiyAEF8DC+dcQSO74INxzXDNUonCKMAmHtgmxEITJlWUu1ihZtJJTcReLwjqXZMtEomyFiywXWcTD5vUgawjzElTEwDtlbXmd0n1VxPmpVKED7KylzMvmLyeZOyCOJrg8l6n+jIwRRGc0mJBOE1YO4WWsTk8yZlEcRih2Bd1xNxwZV6FCyRICFfNCafNymLIB5uFq7y727WeE14FZNKiiA98FkJwir43sZ1J5lChTcRYNpUhoykCDf3RVsEiUQQJjZ+oS/q0htFgKl0SI6Yt/hGG+1RSEUQvhqc4mCTQ2A6WT5RYRHTpGBSXusFM2Mw9Y4kHAFG4TKe6pjwKqKWTEWQlBEVxM4acmPyeZPyhjl8D2aiWrGSyvgwzanGxG2ph35swucKYuU73sTgbAA7GYEx+bxJ2dgRqZeFQEqCEAnG5Z0GgClPpwgz9jORHZ8Fv1pARSafNykHdEZFykEgNUFyQcLk8yblXEaofiRBQATpgVUESeJrRVaaapGeGxgmnzcp5zZS9ScqAiKIZpCoDlVbZfrEEkFq8+mo4xFBRJCoDlVbZSKICFKbT0cdjwgigkR1qNoq0yJdBKnNp6OORwQRQaI6VG2V6RNLBKnNp6OORwQRQaI6VG2ViSAiSG0+HXU8IogIEtWhaqssJAFCiRiYwqtMyiWioT57IyCCaAbxdpYWFUUQEaRFv/ce844AzvHWLlfR9NVkUi4XE/XcE4E5XsXy7EoyNZPPm5STdVkV54QA73rzGelaxeTzJuVaEdO4LoEAkyHwKYEcZVcAzKhzQGDnTD5vUg7skIoJgRQI8D34EwMqNvm8STmgMyoiBFIicByAo4wNmHzepGzsiNSFQGoEmN2TWT4tYvJ5k7KlF9IVAjMgEHJ2Y/J5k/IMA1YTQsCCgAhiQUu6zSEggjRncg3YgsDuAE63FABg+moyKRs7InUhkBqBywDgu/G7GBoy+bxJ2dAJqQqBuRDYH8AJALb3bNDk8yZlzw5ITQjMjcBuAI4GcCiAHUYaN/m8SXnuUas9IbA0AiLI0hZQ+1kjIIJkbR51bmkERJClLaD2s0ZABMnaPOrc0giIIEtbQO1njYAIkrV51LmlERBBlraA2s8aAREka/Ooc0sjIIIsbQG1nzUCIkjW5lHnlkZABFnaAmo/awT+D1BH6ud2nbdZAAAAAElFTkSuQmCC;rotation=90;flipV=1;" vertex="1" parent="VO_4vQ80IrR_DuiOpRqN-63">
          <mxGeometry x="20" y="10" width="20" height="20" as="geometry" />
        </mxCell>
        <mxCell id="VO_4vQ80IrR_DuiOpRqN-69" value="" style="fontColor=#0066CC;verticalAlign=top;verticalLabelPosition=bottom;labelPosition=center;align=center;html=1;outlineConnect=0;fillColor=#000000;strokeColor=#6881B3;gradientColor=none;gradientDirection=north;strokeWidth=2;shape=mxgraph.networks.security_camera;rotation=75;" vertex="1" parent="1">
          <mxGeometry x="762.8599697673951" y="207.00327062629412" width="30" height="15" as="geometry" />
        </mxCell>
        <mxCell id="VO_4vQ80IrR_DuiOpRqN-70" value="电桩3" style="text;html=1;align=center;verticalAlign=middle;resizable=0;points=[];autosize=1;strokeColor=none;fillColor=none;rotation=90;" vertex="1" parent="1">
          <mxGeometry x="660" y="185" width="50" height="20" as="geometry" />
        </mxCell>
        <mxCell id="VO_4vQ80IrR_DuiOpRqN-71" value="电桩1" style="text;html=1;align=center;verticalAlign=middle;resizable=0;points=[];autosize=1;strokeColor=none;fillColor=none;" vertex="1" parent="1">
          <mxGeometry x="386" y="1080" width="50" height="20" as="geometry" />
        </mxCell>
        <mxCell id="VO_4vQ80IrR_DuiOpRqN-72" value="立柱1" style="text;html=1;align=center;verticalAlign=middle;resizable=0;points=[];autosize=1;strokeColor=none;fillColor=none;" vertex="1" parent="1">
          <mxGeometry x="454" y="950" width="50" height="20" as="geometry" />
        </mxCell>
        <mxCell id="VO_4vQ80IrR_DuiOpRqN-73" value="立柱2" style="text;html=1;align=center;verticalAlign=middle;resizable=0;points=[];autosize=1;strokeColor=none;fillColor=none;rotation=90;" vertex="1" parent="1">
          <mxGeometry x="550" y="630" width="50" height="20" as="geometry" />
        </mxCell>
        <mxCell id="VO_4vQ80IrR_DuiOpRqN-74" value="立柱3" style="text;html=1;align=center;verticalAlign=middle;resizable=0;points=[];autosize=1;strokeColor=none;fillColor=none;rotation=90;" vertex="1" parent="1">
          <mxGeometry x="660" y="623.63" width="50" height="20" as="geometry" />
        </mxCell>
        <mxCell id="VO_4vQ80IrR_DuiOpRqN-75" value="立柱4" style="text;html=1;align=center;verticalAlign=middle;resizable=0;points=[];autosize=1;strokeColor=none;fillColor=none;" vertex="1" parent="1">
          <mxGeometry x="420" y="340" width="50" height="20" as="geometry" />
        </mxCell>
        <mxCell id="VO_4vQ80IrR_DuiOpRqN-76" value="立柱5" style="text;html=1;align=center;verticalAlign=middle;resizable=0;points=[];autosize=1;strokeColor=none;fillColor=none;" vertex="1" parent="1">
          <mxGeometry x="459.86" y="240" width="50" height="20" as="geometry" />
        </mxCell>
        <mxCell id="VO_4vQ80IrR_DuiOpRqN-77" value="" style="group" vertex="1" connectable="0" parent="1">
          <mxGeometry x="29.9999697673951" y="927.0032706262941" width="102.86006046520981" height="23.62672937370587" as="geometry" />
        </mxCell>
        <mxCell id="VO_4vQ80IrR_DuiOpRqN-78" value="" style="fontColor=#0066CC;verticalAlign=top;verticalLabelPosition=bottom;labelPosition=center;align=center;html=1;outlineConnect=0;fillColor=#000000;strokeColor=#6881B3;gradientColor=none;gradientDirection=north;strokeWidth=2;shape=mxgraph.networks.security_camera;rotation=-15;" vertex="1" parent="VO_4vQ80IrR_DuiOpRqN-77">
          <mxGeometry x="71.4300302326049" y="3.626729373705871" width="30" height="15" as="geometry" />
        </mxCell>
        <mxCell id="VO_4vQ80IrR_DuiOpRqN-79" value="" style="line;strokeWidth=2;html=1;fillColor=none;" vertex="1" parent="VO_4vQ80IrR_DuiOpRqN-77">
          <mxGeometry x="24.430030232604906" y="13.62672937370587" width="60" height="10" as="geometry" />
        </mxCell>
        <mxCell id="VO_4vQ80IrR_DuiOpRqN-84" value="电桩2" style="text;html=1;align=center;verticalAlign=middle;resizable=0;points=[];autosize=1;strokeColor=none;fillColor=none;" vertex="1" parent="1">
          <mxGeometry x="59" y="1047" width="50" height="20" as="geometry" />
        </mxCell>
        <mxCell id="VO_4vQ80IrR_DuiOpRqN-87" value="" style="group;rotation=90;" vertex="1" connectable="0" parent="1">
          <mxGeometry x="720" y="590.82" width="10" height="70" as="geometry" />
        </mxCell>
        <mxCell id="VO_4vQ80IrR_DuiOpRqN-88" value="" style="line;strokeWidth=9;direction=south;html=1;perimeter=backbonePerimeter;points=[];outlineConnect=0;fillColor=none;rotation=90;" vertex="1" parent="VO_4vQ80IrR_DuiOpRqN-87">
          <mxGeometry x="-7" y="7" width="10" height="56" as="geometry" />
        </mxCell>
        <mxCell id="VO_4vQ80IrR_DuiOpRqN-89" value="" style="line;strokeWidth=2;direction=south;html=1;fillColor=none;rotation=90;" vertex="1" parent="VO_4vQ80IrR_DuiOpRqN-87">
          <mxGeometry x="24" y="24" width="10" height="21.466666666666665" as="geometry" />
        </mxCell>
        <mxCell id="VO_4vQ80IrR_DuiOpRqN-90" value="" style="rounded=0;whiteSpace=wrap;html=1;fillColor=none;" vertex="1" parent="1">
          <mxGeometry x="510" y="540" width="287.86" height="105" as="geometry" />
        </mxCell>
        <mxCell id="VO_4vQ80IrR_DuiOpRqN-92" value="&lt;b&gt;车辆出入口1&lt;/b&gt;" style="text;html=1;align=center;verticalAlign=middle;resizable=0;points=[];autosize=1;strokeColor=none;fillColor=none;" vertex="1" parent="1">
          <mxGeometry x="419" y="1060" width="80" height="20" as="geometry" />
        </mxCell>
        <mxCell id="VO_4vQ80IrR_DuiOpRqN-93" value="&lt;b&gt;车辆出入口2&lt;/b&gt;" style="text;html=1;align=center;verticalAlign=middle;resizable=0;points=[];autosize=1;strokeColor=none;fillColor=none;rotation=90;" vertex="1" parent="1">
          <mxGeometry x="743" y="585" width="80" height="20" as="geometry" />
        </mxCell>
        <mxCell id="VO_4vQ80IrR_DuiOpRqN-100" value="" style="line;strokeWidth=10;direction=south;html=1;perimeter=backbonePerimeter;points=[];outlineConnect=0;fontColor=#FFFFFF;fillColor=none;strokeColor=#CCCCCC;" vertex="1" parent="1">
          <mxGeometry x="79" y="927" width="10" height="120" as="geometry" />
        </mxCell>
        <mxCell id="VO_4vQ80IrR_DuiOpRqN-103" value="" style="endArrow=none;html=1;rounded=0;fontColor=#FFFFFF;entryX=0.83;entryY=1.02;entryDx=0;entryDy=0;strokeColor=#0000FF;strokeWidth=3;entryPerimeter=0;startArrow=classicThin;startFill=1;" edge="1" parent="1" source="VO_4vQ80IrR_DuiOpRqN-84" target="VO_4vQ80IrR_DuiOpRqN-16">
          <mxGeometry width="50" height="50" relative="1" as="geometry">
            <mxPoint x="330" y="480" as="sourcePoint" />
            <mxPoint x="380" y="430" as="targetPoint" />
            <Array as="points">
              <mxPoint x="370" y="1057" />
            </Array>
          </mxGeometry>
        </mxCell>
        <mxCell id="VO_4vQ80IrR_DuiOpRqN-104" value="" style="endArrow=classicThin;html=1;rounded=0;fontColor=#FFFFFF;strokeColor=#0000FF;strokeWidth=3;exitX=1;exitY=0.75;exitDx=0;exitDy=0;endFill=1;" edge="1" parent="1" source="VO_4vQ80IrR_DuiOpRqN-16">
          <mxGeometry width="50" height="50" relative="1" as="geometry">
            <mxPoint x="420" y="440" as="sourcePoint" />
            <mxPoint x="700" y="620" as="targetPoint" />
            <Array as="points">
              <mxPoint x="480" y="338" />
              <mxPoint x="480" y="170" />
              <mxPoint x="700" y="170" />
            </Array>
          </mxGeometry>
        </mxCell>
        <mxCell id="VO_4vQ80IrR_DuiOpRqN-105" value="" style="rounded=0;whiteSpace=wrap;html=1;fontColor=#FFFFFF;strokeColor=#000000;strokeWidth=2;fillColor=none;" vertex="1" parent="1">
          <mxGeometry x="56" y="1104" width="734" height="40" as="geometry" />
        </mxCell>
        <mxCell id="VO_4vQ80IrR_DuiOpRqN-106" value="&lt;font color=&quot;#000000&quot;&gt;柳安路&lt;/font&gt;" style="text;html=1;align=center;verticalAlign=middle;resizable=0;points=[];autosize=1;strokeColor=none;fillColor=none;fontColor=#FFFFFF;" vertex="1" parent="1">
          <mxGeometry x="290" y="1114.5" width="50" height="20" as="geometry" />
        </mxCell>
        <mxCell id="VO_4vQ80IrR_DuiOpRqN-107" value="" style="rounded=0;whiteSpace=wrap;html=1;fontColor=#FFFFFF;strokeColor=#000000;strokeWidth=2;fillColor=none;" vertex="1" parent="1">
          <mxGeometry x="47" y="-20" width="734" height="70" as="geometry" />
        </mxCell>
        <mxCell id="VO_4vQ80IrR_DuiOpRqN-108" value="&lt;font color=&quot;#000000&quot; style=&quot;font-size: 18px&quot;&gt;&lt;b&gt;成青路&lt;/b&gt;&lt;/font&gt;" style="text;html=1;align=center;verticalAlign=middle;resizable=0;points=[];autosize=1;strokeColor=none;fillColor=none;fontColor=#FFFFFF;" vertex="1" parent="1">
          <mxGeometry x="280" y="5" width="70" height="20" as="geometry" />
        </mxCell>
        <mxCell id="VO_4vQ80IrR_DuiOpRqN-109" value="参&lt;br&gt;观&lt;br&gt;客&lt;br&gt;流&lt;br&gt;入&lt;br&gt;口" style="text;html=1;align=center;verticalAlign=middle;resizable=0;points=[];autosize=1;strokeColor=none;fillColor=none;fontColor=#000000;" vertex="1" parent="1">
          <mxGeometry x="403.43" y="95" width="30" height="90" as="geometry" />
        </mxCell>
        <mxCell id="VO_4vQ80IrR_DuiOpRqN-110" value="" style="endArrow=none;dashed=1;html=1;dashPattern=1 3;strokeWidth=1;rounded=0;fontColor=#000000;startArrow=classicThin;startFill=1;exitX=1.152;exitY=0.733;exitDx=0;exitDy=0;exitPerimeter=0;" edge="1" parent="1" source="VO_4vQ80IrR_DuiOpRqN-109" target="VO_4vQ80IrR_DuiOpRqN-44">
          <mxGeometry width="50" height="50" relative="1" as="geometry">
            <mxPoint x="130" y="290" as="sourcePoint" />
            <mxPoint x="180" y="240" as="targetPoint" />
          </mxGeometry>
        </mxCell>
        <mxCell id="VO_4vQ80IrR_DuiOpRqN-111" value="" style="endArrow=none;dashed=1;html=1;dashPattern=1 3;strokeWidth=1;rounded=0;fontColor=#000000;startArrow=classicThin;startFill=1;exitX=1;exitY=0.75;exitDx=0;exitDy=0;" edge="1" parent="1" source="VO_4vQ80IrR_DuiOpRqN-3">
          <mxGeometry width="50" height="50" relative="1" as="geometry">
            <mxPoint x="450" y="117.5" as="sourcePoint" />
            <mxPoint x="460" y="180" as="targetPoint" />
          </mxGeometry>
        </mxCell>
        <mxCell id="VO_4vQ80IrR_DuiOpRqN-114" value="" style="endArrow=none;dashed=1;html=1;dashPattern=1 3;strokeWidth=1;rounded=0;fontColor=#000000;startArrow=classicThin;startFill=1;exitX=0.447;exitY=0.109;exitDx=0;exitDy=0;exitPerimeter=0;entryX=1;entryY=0.5;entryDx=0;entryDy=0;" edge="1" parent="1" source="VO_4vQ80IrR_DuiOpRqN-85" target="VO_4vQ80IrR_DuiOpRqN-39">
          <mxGeometry width="50" height="50" relative="1" as="geometry">
            <mxPoint x="447.99" y="170.97000000000003" as="sourcePoint" />
            <mxPoint x="461.5443718786016" y="187" as="targetPoint" />
          </mxGeometry>
        </mxCell>
        <mxCell id="VO_4vQ80IrR_DuiOpRqN-115" value="" style="endArrow=none;dashed=1;html=1;dashPattern=1 3;strokeWidth=1;rounded=0;fontColor=#000000;startArrow=classicThin;startFill=1;exitX=0.658;exitY=0.089;exitDx=0;exitDy=0;exitPerimeter=0;" edge="1" parent="1" source="VO_4vQ80IrR_DuiOpRqN-85">
          <mxGeometry width="50" height="50" relative="1" as="geometry">
            <mxPoint x="411" y="188.97000000000003" as="sourcePoint" />
            <mxPoint x="430" y="280" as="targetPoint" />
          </mxGeometry>
        </mxCell>
        <mxCell id="VO_4vQ80IrR_DuiOpRqN-116" value="" style="endArrow=none;dashed=1;html=1;dashPattern=1 3;strokeWidth=1;rounded=0;fontColor=#000000;startArrow=classicThin;startFill=1;entryX=0.9;entryY=0.93;entryDx=0;entryDy=0;entryPerimeter=0;" edge="1" parent="1" target="VO_4vQ80IrR_DuiOpRqN-69">
          <mxGeometry width="50" height="50" relative="1" as="geometry">
            <mxPoint x="830" y="320" as="sourcePoint" />
            <mxPoint x="446" y="296" as="targetPoint" />
          </mxGeometry>
        </mxCell>
        <mxCell id="VO_4vQ80IrR_DuiOpRqN-117" value="" style="endArrow=none;dashed=1;html=1;dashPattern=1 3;strokeWidth=1;rounded=0;fontColor=#000000;startArrow=classicThin;startFill=1;entryX=0.9;entryY=0.93;entryDx=0;entryDy=0;entryPerimeter=0;exitX=0.895;exitY=0.396;exitDx=0;exitDy=0;exitPerimeter=0;" edge="1" parent="1" source="VO_4vQ80IrR_DuiOpRqN-85" target="VO_4vQ80IrR_DuiOpRqN-69">
          <mxGeometry width="50" height="50" relative="1" as="geometry">
            <mxPoint x="700" y="370" as="sourcePoint" />
            <mxPoint x="784.7355767290608" y="237.76376338267426" as="targetPoint" />
          </mxGeometry>
        </mxCell>
        <mxCell id="VO_4vQ80IrR_DuiOpRqN-118" value="" style="endArrow=none;dashed=1;html=1;dashPattern=1 3;strokeWidth=1;rounded=0;fontColor=#000000;startArrow=classicThin;startFill=1;entryX=0.799;entryY=0.381;entryDx=0;entryDy=0;entryPerimeter=0;" edge="1" parent="1" target="VO_4vQ80IrR_DuiOpRqN-90">
          <mxGeometry width="50" height="50" relative="1" as="geometry">
            <mxPoint x="820" y="530" as="sourcePoint" />
            <mxPoint x="784.7355767290608" y="237.76376338267426" as="targetPoint" />
          </mxGeometry>
        </mxCell>
        <mxCell id="VO_4vQ80IrR_DuiOpRqN-119" value="" style="endArrow=none;dashed=1;html=1;dashPattern=1 3;strokeWidth=1;rounded=0;fontColor=#000000;startArrow=classicThin;startFill=1;" edge="1" parent="1">
          <mxGeometry width="50" height="50" relative="1" as="geometry">
            <mxPoint x="810" y="60" as="sourcePoint" />
            <mxPoint x="740" y="580" as="targetPoint" />
          </mxGeometry>
        </mxCell>
        <mxCell id="VO_4vQ80IrR_DuiOpRqN-120" value="" style="endArrow=none;dashed=1;html=1;dashPattern=1 3;strokeWidth=1;rounded=0;fontColor=#000000;startArrow=classicThin;startFill=1;entryX=0.9;entryY=0.93;entryDx=0;entryDy=0;entryPerimeter=0;" edge="1" parent="1" target="VO_4vQ80IrR_DuiOpRqN-50">
          <mxGeometry width="50" height="50" relative="1" as="geometry">
            <mxPoint x="810" y="1090" as="sourcePoint" />
            <mxPoint x="760.0001400000001" y="600.0050000000001" as="targetPoint" />
          </mxGeometry>
        </mxCell>
        <mxCell id="VO_4vQ80IrR_DuiOpRqN-121" value="" style="endArrow=none;dashed=1;html=1;dashPattern=1 3;strokeWidth=1;rounded=0;fontColor=#000000;startArrow=classicThin;startFill=1;entryX=0.9;entryY=0.93;entryDx=0;entryDy=0;entryPerimeter=0;" edge="1" parent="1" target="VO_4vQ80IrR_DuiOpRqN-50">
          <mxGeometry width="50" height="50" relative="1" as="geometry">
            <mxPoint x="830" y="700" as="sourcePoint" />
            <mxPoint x="748.8755767290609" y="683.7637633826741" as="targetPoint" />
          </mxGeometry>
        </mxCell>
        <mxCell id="VO_4vQ80IrR_DuiOpRqN-122" value="" style="endArrow=none;dashed=1;html=1;dashPattern=1 3;strokeWidth=1;rounded=0;fontColor=#000000;startArrow=none;startFill=1;entryX=0.382;entryY=0.667;entryDx=0;entryDy=0;entryPerimeter=0;exitX=0.921;exitY=0.416;exitDx=0;exitDy=0;exitPerimeter=0;" edge="1" parent="1" source="VO_4vQ80IrR_DuiOpRqN-152" target="VO_4vQ80IrR_DuiOpRqN-90">
          <mxGeometry width="50" height="50" relative="1" as="geometry">
            <mxPoint x="840" y="940" as="sourcePoint" />
            <mxPoint x="758.8755767290609" y="693.7637633826741" as="targetPoint" />
          </mxGeometry>
        </mxCell>
        <mxCell id="VO_4vQ80IrR_DuiOpRqN-123" value="" style="endArrow=none;dashed=1;html=1;dashPattern=1 3;strokeWidth=1;rounded=0;fontColor=#000000;startArrow=classicThin;startFill=1;exitX=0.921;exitY=0.644;exitDx=0;exitDy=0;exitPerimeter=0;" edge="1" parent="1" source="VO_4vQ80IrR_DuiOpRqN-85">
          <mxGeometry width="50" height="50" relative="1" as="geometry">
            <mxPoint x="749.96" y="520.1599999999999" as="sourcePoint" />
            <mxPoint x="620" y="610" as="targetPoint" />
          </mxGeometry>
        </mxCell>
        <mxCell id="VO_4vQ80IrR_DuiOpRqN-125" value="" style="endArrow=none;dashed=1;html=1;dashPattern=1 3;strokeWidth=1;rounded=0;fontColor=#000000;startArrow=classicThin;startFill=1;exitX=0.658;exitY=0.99;exitDx=0;exitDy=0;exitPerimeter=0;" edge="1" parent="1" source="VO_4vQ80IrR_DuiOpRqN-85">
          <mxGeometry width="50" height="50" relative="1" as="geometry">
            <mxPoint x="329.68000000000006" y="969.6100000000001" as="sourcePoint" />
            <mxPoint x="440" y="910" as="targetPoint" />
          </mxGeometry>
        </mxCell>
        <mxCell id="VO_4vQ80IrR_DuiOpRqN-126" value="" style="endArrow=none;dashed=1;html=1;dashPattern=1 3;strokeWidth=1;rounded=0;fontColor=#000000;startArrow=classicThin;startFill=1;entryX=0.88;entryY=0.5;entryDx=0;entryDy=0;entryPerimeter=0;" edge="1" parent="1" target="VO_4vQ80IrR_DuiOpRqN-4">
          <mxGeometry width="50" height="50" relative="1" as="geometry">
            <mxPoint x="820" y="1110" as="sourcePoint" />
            <mxPoint x="450" y="932" as="targetPoint" />
          </mxGeometry>
        </mxCell>
        <mxCell id="VO_4vQ80IrR_DuiOpRqN-127" value="" style="endArrow=none;dashed=1;html=1;dashPattern=1 3;strokeWidth=1;rounded=0;fontColor=#000000;startArrow=classicThin;startFill=1;exitX=0.462;exitY=1.05;exitDx=0;exitDy=0;exitPerimeter=0;" edge="1" parent="1" source="VO_4vQ80IrR_DuiOpRqN-105">
          <mxGeometry width="50" height="50" relative="1" as="geometry">
            <mxPoint x="600" y="1160" as="sourcePoint" />
            <mxPoint x="460" y="970" as="targetPoint" />
          </mxGeometry>
        </mxCell>
        <mxCell id="VO_4vQ80IrR_DuiOpRqN-128" value="" style="endArrow=none;dashed=1;html=1;dashPattern=1 3;strokeWidth=1;rounded=0;fontColor=#000000;startArrow=classicThin;startFill=1;exitX=0.492;exitY=1;exitDx=0;exitDy=0;exitPerimeter=0;entryX=0.9;entryY=0.93;entryDx=0;entryDy=0;entryPerimeter=0;" edge="1" parent="1" source="VO_4vQ80IrR_DuiOpRqN-105" target="VO_4vQ80IrR_DuiOpRqN-26">
          <mxGeometry width="50" height="50" relative="1" as="geometry">
            <mxPoint x="405.10799999999995" y="1156" as="sourcePoint" />
            <mxPoint x="470" y="980" as="targetPoint" />
          </mxGeometry>
        </mxCell>
        <mxCell id="VO_4vQ80IrR_DuiOpRqN-129" value="" style="endArrow=none;dashed=1;html=1;dashPattern=1 3;strokeWidth=1;rounded=0;fontColor=#000000;startArrow=classicThin;startFill=1;" edge="1" parent="1">
          <mxGeometry width="50" height="50" relative="1" as="geometry">
            <mxPoint x="10" y="1120" as="sourcePoint" />
            <mxPoint x="360" y="970" as="targetPoint" />
          </mxGeometry>
        </mxCell>
        <mxCell id="VO_4vQ80IrR_DuiOpRqN-130" value="" style="endArrow=none;dashed=1;html=1;dashPattern=1 3;strokeWidth=1;rounded=0;fontColor=#000000;startArrow=classicThin;startFill=1;entryX=0.88;entryY=0.5;entryDx=0;entryDy=0;entryPerimeter=0;exitX=0.645;exitY=0.693;exitDx=0;exitDy=0;exitPerimeter=0;" edge="1" parent="1" source="VO_4vQ80IrR_DuiOpRqN-85" target="VO_4vQ80IrR_DuiOpRqN-78">
          <mxGeometry width="50" height="50" relative="1" as="geometry">
            <mxPoint x="840" y="1130" as="sourcePoint" />
            <mxPoint x="474.4415544196954" y="988.1794628858313" as="targetPoint" />
          </mxGeometry>
        </mxCell>
        <mxCell id="VO_4vQ80IrR_DuiOpRqN-131" value="" style="endArrow=none;dashed=1;html=1;dashPattern=1 3;strokeWidth=1;rounded=0;fontColor=#000000;startArrow=classicThin;startFill=1;entryX=0.9;entryY=0.93;entryDx=0;entryDy=0;entryPerimeter=0;" edge="1" parent="1" target="VO_4vQ80IrR_DuiOpRqN-78">
          <mxGeometry width="50" height="50" relative="1" as="geometry">
            <mxPoint x="290" y="1160" as="sourcePoint" />
            <mxPoint x="137.44155441969542" y="945.1794628858313" as="targetPoint" />
          </mxGeometry>
        </mxCell>
        <mxCell id="VO_4vQ80IrR_DuiOpRqN-132" value="" style="rounded=0;whiteSpace=wrap;html=1;fontColor=#FFFFFF;strokeColor=#000000;strokeWidth=2;fillColor=none;" vertex="1" parent="1">
          <mxGeometry x="810" y="80" width="40" height="1020" as="geometry" />
        </mxCell>
        <mxCell id="VO_4vQ80IrR_DuiOpRqN-133" value="玉&lt;br&gt;兰&lt;br&gt;村&lt;br&gt;路" style="text;html=1;align=center;verticalAlign=middle;resizable=0;points=[];autosize=1;strokeColor=none;fillColor=none;fontColor=#000000;" vertex="1" parent="1">
          <mxGeometry x="815" y="770" width="30" height="60" as="geometry" />
        </mxCell>
        <mxCell id="VO_4vQ80IrR_DuiOpRqN-134" value="" style="shape=crossbar;whiteSpace=wrap;html=1;rounded=1;direction=south;fontColor=#000000;strokeColor=#000000;strokeWidth=1;fillColor=none;" vertex="1" parent="1">
          <mxGeometry x="10" y="90" width="20" height="1010" as="geometry" />
        </mxCell>
        <mxCell id="VO_4vQ80IrR_DuiOpRqN-135" value="200米" style="text;html=1;align=center;verticalAlign=middle;resizable=0;points=[];autosize=1;strokeColor=none;fillColor=none;fontColor=#000000;rotation=90;" vertex="1" parent="1">
          <mxGeometry x="5" y="540" width="50" height="20" as="geometry" />
        </mxCell>
        <mxCell id="VO_4vQ80IrR_DuiOpRqN-136" value="" style="shape=crossbar;whiteSpace=wrap;html=1;rounded=1;fontColor=#000000;strokeColor=#000000;strokeWidth=1;fillColor=none;" vertex="1" parent="1">
          <mxGeometry x="40" y="60" width="760" height="20" as="geometry" />
        </mxCell>
        <mxCell id="VO_4vQ80IrR_DuiOpRqN-137" value="150米" style="text;html=1;align=center;verticalAlign=middle;resizable=0;points=[];autosize=1;strokeColor=none;fillColor=none;fontColor=#000000;" vertex="1" parent="1">
          <mxGeometry x="403.43" y="50" width="50" height="20" as="geometry" />
        </mxCell>
        <mxCell id="VO_4vQ80IrR_DuiOpRqN-139" value="&lt;font color=&quot;#0000ff&quot;&gt;光纤&lt;/font&gt;" style="text;html=1;align=center;verticalAlign=middle;resizable=0;points=[];autosize=1;strokeColor=none;fillColor=none;fontColor=#000000;" vertex="1" parent="1">
          <mxGeometry x="373.43" y="390" width="40" height="20" as="geometry" />
        </mxCell>
        <mxCell id="VO_4vQ80IrR_DuiOpRqN-140" value="&lt;font color=&quot;#0000ff&quot;&gt;光纤&lt;/font&gt;" style="text;html=1;align=center;verticalAlign=middle;resizable=0;points=[];autosize=1;strokeColor=none;fillColor=none;fontColor=#000000;" vertex="1" parent="1">
          <mxGeometry x="479" y="315" width="40" height="20" as="geometry" />
        </mxCell>
        <mxCell id="VO_4vQ80IrR_DuiOpRqN-141" value="" style="verticalLabelPosition=bottom;shadow=0;dashed=0;align=center;html=1;verticalAlign=top;shape=mxgraph.electrical.transmission.optical_fiber;fontSize=18;fontColor=#0000FF;strokeColor=#0000FF;strokeWidth=2;fillColor=none;rotation=90;" vertex="1" parent="1">
          <mxGeometry x="352.14" y="422" width="42.07" height="31.49" as="geometry" />
        </mxCell>
        <mxCell id="VO_4vQ80IrR_DuiOpRqN-142" value="" style="verticalLabelPosition=bottom;shadow=0;dashed=0;align=center;html=1;verticalAlign=top;shape=mxgraph.electrical.transmission.optical_fiber;fontSize=18;fontColor=#0000FF;strokeColor=#0000FF;strokeWidth=2;fillColor=none;rotation=0;" vertex="1" parent="1">
          <mxGeometry x="570" y="156" width="44" height="30" as="geometry" />
        </mxCell>
        <mxCell id="VO_4vQ80IrR_DuiOpRqN-145" value="" style="verticalLabelPosition=bottom;shadow=0;dashed=0;align=center;html=1;verticalAlign=top;shape=mxgraph.electrical.transmission.optical_fiber;fontSize=18;fontColor=#0000FF;strokeColor=#0000FF;strokeWidth=2;fillColor=none;rotation=90;" vertex="1" parent="1">
          <mxGeometry x="678.93" y="471" width="42.07" height="31.49" as="geometry" />
        </mxCell>
        <mxCell id="VO_4vQ80IrR_DuiOpRqN-148" value="" style="verticalLabelPosition=bottom;shadow=0;dashed=0;align=center;html=1;verticalAlign=top;shape=mxgraph.electrical.transmission.optical_fiber;fontSize=18;fontColor=#0000FF;strokeColor=#0000FF;strokeWidth=2;fillColor=none;rotation=-180;" vertex="1" parent="1">
          <mxGeometry x="269.99999999999994" y="1041.26" width="42.07" height="31.49" as="geometry" />
        </mxCell>
        <mxCell id="VO_4vQ80IrR_DuiOpRqN-150" value="&lt;font style=&quot;font-size: 12px&quot;&gt;&lt;b&gt;光纤收发器1&lt;/b&gt;&lt;/font&gt;" style="sketch=0;pointerEvents=1;shadow=0;dashed=0;html=1;strokeColor=none;fillColor=#505050;labelPosition=center;verticalLabelPosition=bottom;verticalAlign=top;outlineConnect=0;align=center;shape=mxgraph.office.devices.switch;fontSize=18;fontColor=#0000FF;" vertex="1" parent="1">
          <mxGeometry x="90" y="962.8199999999999" width="55" height="18" as="geometry" />
        </mxCell>
        <mxCell id="VO_4vQ80IrR_DuiOpRqN-149" value="&lt;font style=&quot;font-size: 12px&quot;&gt;&lt;b&gt;光纤收发器2&lt;/b&gt;&lt;/font&gt;" style="sketch=0;pointerEvents=1;shadow=0;dashed=0;html=1;strokeColor=none;fillColor=#505050;labelPosition=center;verticalLabelPosition=bottom;verticalAlign=top;outlineConnect=0;align=center;shape=mxgraph.office.devices.switch;fontSize=18;fontColor=#0000FF;" vertex="1" parent="1">
          <mxGeometry x="434.5" y="980" width="55" height="18" as="geometry" />
        </mxCell>
        <mxCell id="VO_4vQ80IrR_DuiOpRqN-151" value="" style="endArrow=none;dashed=1;html=1;dashPattern=1 3;strokeWidth=1;rounded=0;fontColor=#000000;startArrow=classicThin;startFill=1;" edge="1" parent="1" target="VO_4vQ80IrR_DuiOpRqN-36">
          <mxGeometry width="50" height="50" relative="1" as="geometry">
            <mxPoint x="310" y="950" as="sourcePoint" />
            <mxPoint x="430" y="912" as="targetPoint" />
          </mxGeometry>
        </mxCell>
        <mxCell id="VO_4vQ80IrR_DuiOpRqN-154" value="" style="edgeStyle=orthogonalEdgeStyle;rounded=0;orthogonalLoop=1;jettySize=auto;html=1;fontSize=12;fontColor=#0000FF;startArrow=classicThin;startFill=1;endArrow=classicThin;endFill=1;strokeColor=#0000FF;strokeWidth=1;" edge="1" parent="1" source="VO_4vQ80IrR_DuiOpRqN-152" target="VO_4vQ80IrR_DuiOpRqN-88">
          <mxGeometry relative="1" as="geometry" />
        </mxCell>
        <mxCell id="VO_4vQ80IrR_DuiOpRqN-152" value="&lt;font style=&quot;font-size: 12px&quot;&gt;&lt;b&gt;光纤收发器3&lt;/b&gt;&lt;/font&gt;" style="sketch=0;pointerEvents=1;shadow=0;dashed=0;html=1;strokeColor=none;fillColor=#505050;labelPosition=center;verticalLabelPosition=bottom;verticalAlign=top;outlineConnect=0;align=center;shape=mxgraph.office.devices.switch;fontSize=18;fontColor=#0000FF;" vertex="1" parent="1">
          <mxGeometry x="635" y="565" width="55" height="18" as="geometry" />
        </mxCell>
        <mxCell id="VO_4vQ80IrR_DuiOpRqN-153" value="" style="endArrow=none;dashed=1;html=1;dashPattern=1 3;strokeWidth=1;rounded=0;fontColor=#000000;startArrow=classicThin;startFill=1;entryX=0.382;entryY=0.667;entryDx=0;entryDy=0;entryPerimeter=0;exitX=0.921;exitY=0.416;exitDx=0;exitDy=0;exitPerimeter=0;" edge="1" parent="1" source="VO_4vQ80IrR_DuiOpRqN-85" target="VO_4vQ80IrR_DuiOpRqN-152">
          <mxGeometry width="50" height="50" relative="1" as="geometry">
            <mxPoint x="739.96" y="510.15999999999985" as="sourcePoint" />
            <mxPoint x="619.96252" y="610.0349999999999" as="targetPoint" />
          </mxGeometry>
        </mxCell>
        <mxCell id="VO_4vQ80IrR_DuiOpRqN-155" value="&lt;font style=&quot;font-size: 12px&quot;&gt;&lt;b&gt;光纤收发器4&lt;/b&gt;&lt;/font&gt;" style="sketch=0;pointerEvents=1;shadow=0;dashed=0;html=1;strokeColor=none;fillColor=#505050;labelPosition=center;verticalLabelPosition=bottom;verticalAlign=top;outlineConnect=0;align=center;shape=mxgraph.office.devices.switch;fontSize=18;fontColor=#0000FF;" vertex="1" parent="1">
          <mxGeometry x="707.86" y="196" width="55" height="18" as="geometry" />
        </mxCell>
        <mxCell id="VO_4vQ80IrR_DuiOpRqN-156" value="&lt;font style=&quot;font-size: 12px&quot;&gt;&lt;b&gt;光纤收发器5&lt;/b&gt;&lt;/font&gt;" style="sketch=0;pointerEvents=1;shadow=0;dashed=0;html=1;strokeColor=none;fillColor=#505050;labelPosition=center;verticalLabelPosition=bottom;verticalAlign=top;outlineConnect=0;align=center;shape=mxgraph.office.devices.switch;fontSize=18;fontColor=#0000FF;" vertex="1" parent="1">
          <mxGeometry x="409" y="216.5" width="55" height="18" as="geometry" />
        </mxCell>
      </root>
    </mxGraphModel>
  </diagram>
</mxfile>
